<?xml version="1.0" encoding="utf-8"?>
<!-- Generator: Adobe Illustrator 22.1.0, SVG Export Plug-In . SVG Version: 6.00 Build 0)  -->
<svg version="1.1" id="Livello_1" xmlns="http://www.w3.org/2000/svg" xmlns:xlink="http://www.w3.org/1999/xlink" x="0px" y="0px"
	 viewBox="0 0 362.6 304" style="enable-background:new 0 0 362.6 304;" xml:space="preserve">
<style type="text/css">
	.st0{fill:#F85068;}
	.st1{fill:#7C397F;}
	.st2{clip-path:url(#SVGID_2_);fill:#E2819A;}
	.st3{clip-path:url(#SVGID_2_);fill:#E07386;}
	.st4{clip-path:url(#SVGID_2_);fill:#DD9968;}
	.st5{clip-path:url(#SVGID_2_);fill:#E2A979;}
	.st6{clip-path:url(#SVGID_2_);fill:#C9946C;}
	.st7{clip-path:url(#SVGID_2_);fill:#C5895E;}
	.st8{clip-path:url(#SVGID_2_);fill:#F1B885;}
	.st9{clip-path:url(#SVGID_2_);fill:#B85436;}
	.st10{clip-path:url(#SVGID_2_);fill:#232735;}
	.st11{clip-path:url(#SVGID_2_);fill:#FFFFFF;}
	.st12{clip-path:url(#SVGID_2_);fill:#EAEAE9;}
	.st13{clip-path:url(#SVGID_2_);fill:#A1D5E7;}
	.st14{opacity:0.3;clip-path:url(#SVGID_4_);}
	.st15{clip-path:url(#SVGID_6_);fill:#DFDFDF;}
	.st16{opacity:0.5;clip-path:url(#SVGID_4_);}
	.st17{clip-path:url(#SVGID_8_);fill:#FFFFFF;}
	.st18{clip-path:url(#SVGID_4_);fill:#9B392B;}
	.st19{clip-path:url(#SVGID_4_);fill:#D23732;}
	.st20{clip-path:url(#SVGID_10_);fill:#9B392B;}
	.st21{clip-path:url(#SVGID_12_);fill:#9B392B;}
	.st22{clip-path:url(#SVGID_14_);fill:#232735;}
	.st23{clip-path:url(#SVGID_14_);fill:#DD9968;}
	.st24{clip-path:url(#SVGID_14_);fill:#E2A979;}
	.st25{clip-path:url(#SVGID_14_);fill:#C9946C;}
	.st26{clip-path:url(#SVGID_14_);fill:#C5895E;}
	.st27{clip-path:url(#SVGID_14_);fill:#F1B885;}
	.st28{fill:#E2819A;}
	.st29{fill:#E07386;}
	.st30{fill:#DD9968;}
	.st31{fill:#E2A979;}
	.st32{fill:#C9946C;}
	.st33{fill:#C5895E;}
	.st34{fill:#F1B885;}
	.st35{fill:#B85436;}
	.st36{fill:#232735;}
	.st37{fill:#FFFFFF;}
	.st38{fill:#EAEAE9;}
	.st39{fill:#A1D5E7;}
	.st40{fill:none;}
	.st41{opacity:0.3;clip-path:url(#SVGID_16_);}
	.st42{clip-path:url(#SVGID_18_);fill:#DFDFDF;}
	.st43{opacity:0.5;clip-path:url(#SVGID_16_);}
	.st44{clip-path:url(#SVGID_20_);fill:#FFFFFF;}
	.st45{clip-path:url(#SVGID_16_);fill:#9B392B;}
	.st46{clip-path:url(#SVGID_16_);fill:#D23732;}
	.st47{clip-path:url(#SVGID_22_);fill:#9B392B;}
	.st48{clip-path:url(#SVGID_24_);fill:#9B392B;}
</style>
<title>Asset 1</title>
<g id="Layer_2">
	<g id="Layer_1-2">
		<rect x="1.5" y="109" class="st0" width="121" height="3"/>
		<rect x="1.5" y="286.9" class="st0" width="121" height="3"/>
		<path class="st1" d="M109.2,304H14.8C6.6,304,0,297.4,0,289.2V95.7c0-8.2,6.6-14.8,14.8-14.8h94.4c8.2,0,14.8,6.6,14.8,14.8v193.6
			C124,297.4,117.4,304,109.2,304z M14.8,83.9C8.3,83.9,3,89.1,3,95.7v193.6c0,6.5,5.3,11.8,11.8,11.8h94.4
			c6.5,0,11.8-5.3,11.8-11.8V95.7c0-6.5-5.3-11.8-11.8-11.8H14.8z"/>
		<path class="st1" d="M347.8,304H154.3c-8.2,0-14.8-6.6-14.8-14.8V14.8c0-8.2,6.6-14.8,14.8-14.8h193.6c8.2,0,14.8,6.6,14.8,14.8
			v274.4C362.6,297.4,356,304,347.8,304z M154.3,3c-6.5,0-11.8,5.3-11.8,11.8v274.4c0,6.5,5.3,11.8,11.8,11.8h193.6
			c6.5,0,11.8-5.3,11.8-11.8V14.8c0-6.5-5.3-11.8-11.8-11.8H154.3z"/>
		<path class="st1" d="M86.6,97.9H37.4c-0.8,0-1.5-0.7-1.5-1.5s0.7-1.5,1.5-1.5h49.2c0.8,0,1.5,0.7,1.5,1.5S87.4,97.9,86.6,97.9z"/>
		<path class="st0" d="M78.2,189.9H45.8c-0.8,0-1.5-0.7-1.5-1.5s0.7-1.5,1.5-1.5h32.4c0.8,0,1.5,0.7,1.5,1.5S79,189.9,78.2,189.9z"
			/>
		<path class="st1" d="M92.2,204H31.8c-0.8,0-1.5-0.7-1.5-1.5s0.7-1.5,1.5-1.5l0,0h60.5c0.8,0,1.5,0.7,1.5,1.5S93.1,204,92.2,204z"
			/>
		<path class="st1" d="M92.2,211H31.8c-0.8,0-1.5-0.7-1.5-1.5s0.7-1.5,1.5-1.5l0,0h60.5c0.8,0,1.5,0.7,1.5,1.5S93.1,211,92.2,211z"
			/>
		<path class="st1" d="M78.2,218H45.8c-0.8,0-1.5-0.7-1.5-1.5s0.7-1.5,1.5-1.5h32.4c0.8,0,1.5,0.7,1.5,1.5S79,218,78.2,218z"/>
		<path class="st0" d="M47.2,230.6h29.6c3.5,0,6.3,2.8,6.3,6.3l0,0c0,3.5-2.8,6.3-6.3,6.3H47.2c-3.5,0-6.3-2.8-6.3-6.3l0,0
			C40.8,233.4,43.7,230.6,47.2,230.6z"/>
		<path class="st0" d="M267.2,140h-32.4c-0.8,0-1.5-0.7-1.5-1.5s0.7-1.5,1.5-1.5h32.4c0.8,0,1.5,0.7,1.5,1.5S268,140,267.2,140z"/>
		<path class="st1" d="M281.2,154.1h-60.5c-0.8,0-1.5-0.7-1.5-1.5s0.7-1.5,1.5-1.5h60.5c0.8,0,1.5,0.7,1.5,1.5
			S282.1,154.1,281.2,154.1z"/>
		<path class="st1" d="M281.2,161.1h-60.5c-0.8,0-1.5-0.7-1.5-1.5s0.7-1.5,1.5-1.5h60.5c0.8,0,1.5,0.7,1.5,1.5
			S282.1,161.1,281.2,161.1z"/>
		<path class="st1" d="M267.2,168.1h-32.4c-0.8,0-1.5-0.7-1.5-1.5s0.7-1.5,1.5-1.5h32.4c0.8,0,1.5,0.7,1.5,1.5
			S268,168.1,267.2,168.1z"/>
		<path class="st0" d="M236.2,180.7h29.6c3.5,0,6.3,2.8,6.3,6.3l0,0c0,3.5-2.8,6.3-6.3,6.3h-29.6c-3.5,0-6.3-2.8-6.3-6.3l0,0
			C229.9,183.5,232.7,180.7,236.2,180.7z"/>
		<path class="st0" d="M352.6,270.7H149.4V20h203.2V270.7z M152.4,267.7h197.2V23H152.4L152.4,267.7z"/>
		<path class="st1" d="M251,294.4c-5,0-9.1-4.1-9.1-9.1c0-5,4.1-9.1,9.1-9.1c5,0,9.1,4.1,9.1,9.1l0,0
			C260.1,290.3,256,294.4,251,294.4z M251,279.2c-3.4,0-6.1,2.7-6.1,6.1c0,3.4,2.7,6.1,6.1,6.1c3.4,0,6.1-2.7,6.1-6.1l0,0
			C257.1,282,254.4,279.2,251,279.2z"/>
	</g>
</g>
<title>Asset 1</title>
<g>
	<g>
		<defs>
			<path id="SVGID_1_" d="M38.3,152.6c0,13.1,10.6,23.7,23.7,23.7s23.7-10.6,23.7-23.7c0-13.1-10.6-23.7-23.7-23.7
				S38.3,139.5,38.3,152.6"/>
		</defs>
		<clipPath id="SVGID_2_">
			<use xlink:href="#SVGID_1_"  style="overflow:visible;"/>
		</clipPath>
		<path class="st2" d="M38.7,148.8c0.5-3.4,1.7-6.6,3.7-9.4c0.4-0.2,0.8-0.4,1.3-0.5c1.8-0.2,3.5-0.8,5.1-1.6c3.7-1.9,7.4-1.9,11,0
			c2.6,1.3,5.2,2,8.1,1.8c2.3-0.1,4.6,0,6.9,0c0.5,0,1,0,1.4,0.2c0.2,0.2,0.4,0.4,0.3,0.7c0,1.1-0.2,2.1-0.6,3.1
			c-0.1,0.3-0.4,0.5-0.7,0.5c-1.4,0-2.7-0.5-4.2-0.5c-3.7-0.1-7.1,1-10,3.3c-2.1,1.6-4.4,2.7-7.1,3.1c-0.4,0.1-0.8,0.1-1.2,0.1
			c-4.2,0-8.5,0-12.7,0c-0.3,0-0.6,0-0.9-0.1C38.8,149.4,38.5,149.2,38.7,148.8"/>
		<path class="st2" d="M38.7,156.6c-0.3-1.6-0.5-3.2-0.4-4.9c0.1-0.2,0-0.6,0.3-0.8c0.4-0.2,0.8-0.1,1.3-0.1c3.9,0,7.9,0,11.8,0
			c0.4,0,0.8,0,1.2-0.1c0,0,0.1-0.1,0.1-0.1c0.1-0.1,0.2-0.1,0.3-0.1c3.4-0.5,6.3-2,9.1-4c3.4-2.4,7.2-3.1,11.3-2.2
			c0.5,0.1,1,0.2,1.4,0.7c0.1,0.3,0.1,0.6,0,0.9c-0.6,2-1.4,3.9-2.5,5.6c-0.2,0.3-0.4,0.5-0.7,0.6c-0.6,0.1-1.2,0-1.9,0
			c-2.1-0.1-4,0.7-5.5,2.1c-2,1.9-4.4,2.8-7.2,2.8c-5.6,0-11.3,0-16.9,0C39.8,157,39.2,157.1,38.7,156.6"/>
		<path class="st2" d="M43.8,137.4c5.3-6.2,12-9.1,20.2-8.5c4.8,0.3,9.1,2,12.8,5.1c0.7,1.3,0.2,2.5-0.1,3.7
			c-0.4,0.4-0.9,0.4-1.4,0.4c-3,0-6.1,0-9.1,0c-2.1,0-4-0.7-5.8-1.6c-1.4-0.7-2.9-1.2-4.4-1.5c-2.9-0.4-5.5,0.2-8,1.5
			c-1,0.5-2,1-3.1,1.2C44.5,137.8,44,138,43.8,137.4"/>
		<path class="st2" d="M54.9,175.1c-3.4-1-6.3-2.7-8.8-5.1c0.2-0.3,0.5-0.4,0.8-0.4c5.1-1,9.7-3,14-5.8c0.1-0.1,0.2-0.1,0.3-0.1
			c1.3,0.1,2.2,1.1,3.1,1.9c2.3,2,4.8,2.7,7.8,1.9c1.4-0.4,2.5-1.2,3.5-2.2c1.8-1.7,4-2.4,6.4-2.4c0.4,0,0.8,0,1.1,0.3
			c-3.4,6.7-8.8,10.8-16,12.5c-1,0.2-2,0.5-3,0.4c-0.1-0.5,0.3-0.7,0.6-0.9c1.5-1.6,1.2-3.7-0.6-4.9c-2.2-1.4-4.6-1.5-7-0.4
			c-1.4,0.6-2.9,2.4-1.9,4.4C55.6,174.9,55.5,175,54.9,175.1"/>
		<path class="st2" d="M40.1,161.5c-0.4-1.1-0.9-2.1-1-3.3c0.5-0.5,1.1-0.4,1.7-0.4c5.5,0,11-0.1,16.4,0c3.1,0,5.8-0.9,8-3
			c1.3-1.2,2.8-1.8,4.5-1.9c0.5,0,0.9,0,1.3,0.3c0.4,0.8-0.2,1.2-0.5,1.7c-0.1,0.1-0.2,0.1-0.3,0.2c-0.4,0.1-0.8,0.1-1.1,0.2
			c-2.4,0.7-3.6,2.2-3.8,4.7c0,0.3,0,0.7-0.1,1c-0.7,0.8-1.4,1.6-2.5,1.9c-0.1,0-0.1,0-0.2,0c-2.3-1.1-4.8-1-7.3-0.9
			c-4.5,0-8.9,0-13.4,0C41.2,161.9,40.6,162,40.1,161.5"/>
		<path class="st2" d="M72,152c1.2-2.2,2.3-4.4,2.9-6.9c0.4-0.3,0.8-0.1,1.2,0.1c1.2,0.5,2.3,1.1,3.3,1.9c1.6,1.3,3.3,2.3,5.3,2.8
			c0.3,0.1,0.6,0.3,0.8,0.5c0.3,2.1,0.1,4.2-0.2,6.3c-0.2,0.2-0.5,0.3-0.8,0.3c-3.5,0.2-6.8-0.2-9.4-2.9c-0.6-0.6-1.4-1.1-2.2-1.4
			C72.5,152.5,72.1,152.4,72,152"/>
		<path class="st2" d="M61.2,163.7c-0.6,0.8-1.5,1.2-2.4,1.7c-3.9,2.4-8.2,3.9-12.8,4.6c-2.2-1.9-4-4.2-5.2-6.9
			c0.3-0.4,0.8-0.4,1.3-0.4c5.4,0,10.8,0,16.1,0C59.3,162.8,60.5,162.7,61.2,163.7"/>
		<path class="st3" d="M72,152c1.6,0.5,2.9,1.4,4.1,2.6c1.6,1.4,3.5,2,5.6,2.1c1.2,0.1,2.4,0,3.6,0c0,0.5-0.1,1.1-0.4,1.6
			c-0.2,0.2-0.5,0.3-0.8,0.3c-3.8,0.3-7.3-0.4-10.1-3.2c-0.6-0.6-1.2-1-2-1.2c-0.4-0.1-0.8-0.2-1-0.6c-2.1-0.5-3.9,0-5.4,1.4
			c-2.4,2.3-5.1,3.4-8.5,3.3c-6-0.1-12.1,0-18.1,0c-0.3-0.5-0.4-1-0.4-1.6c6.4,0,12.8,0,19.2,0c2.2,0,4.3-0.7,5.9-2.3
			C66.1,152.1,68.8,151.3,72,152"/>
		<path class="st3" d="M85.5,150.4c-2.4-0.5-4.5-1.7-6.4-3.2c-1.2-1-2.6-1.7-4.2-2.1c-4.8-1.6-9.1-0.7-13.1,2.2
			c-2.6,1.9-5.4,3.3-8.7,3.4c-0.2,0.1-0.5,0.1-0.8,0.1c-4.3,0-8.5,0-12.8,0c-0.5,0-0.9,0-1.2-0.5c0-0.5-0.1-1.1,0.2-1.6
			c0.1,0.5,0.5,0.4,0.9,0.4c4.5,0,9,0.1,13.5,0c2.9-0.1,5.4-1.3,7.6-3c4.2-3.2,8.9-4.2,14-2.9c0.2,0,0.3,0.1,0.5,0.1
			c1.6,0,2.9,0.8,4.2,1.7c1.8,1.2,3.6,2.5,5.6,3.3c0.2,0.1,0.3,0.2,0.4,0.3C85.5,149.2,85.6,149.8,85.5,150.4"/>
		<path class="st2" d="M71,153.5c1.1,0.1,2.2,0.5,3,1.3c2.4,2.5,5.4,3.6,8.8,3.4c0.7,0,1.4,0,2.1,0c-0.1,1.2-0.6,2.2-1,3.3
			c-0.4,0.4-0.9,0.4-1.4,0.3c-3.1-0.2-5.7,0.9-8.1,3c-2.9,2.6-6.6,2.5-9.4-0.2c-0.5-0.4-0.9-0.8-1.4-1.2c-0.3-0.2-0.7-0.3-0.6-0.8
			c0.5-0.7,1.3-1.2,2-1.8c0.5,0,0.6,0.5,0.7,0.8c1.1,2,2.6,2.8,4.8,2.6c1.8-0.2,3.3-1.5,3.8-3.5c0.6-2.1-0.7-4.5-2.8-5.3
			c-0.4-0.2-1-0.1-1.2-0.7C70.5,154.4,70.8,154,71,153.5"/>
		<path class="st3" d="M63,162.7c1,0.7,1.9,1.5,2.8,2.2c2.6,2.1,6.1,2,8.5-0.4c2.3-2.2,5-3.2,8.2-3c0.5,0,0.9,0,1.4,0
			c-0.2,0.6-0.4,1.1-0.8,1.6c-2.3-0.1-4.4,0.2-6.3,1.5c-0.4,0.3-0.7,0.6-1,0.9c-3.5,3.4-8.4,3.4-11.9,0c-0.8-0.8-1.7-1.3-2.7-1.8
			c-1.3-0.5-2.6-0.6-4-0.6c-5.4,0-10.9,0-16.3,0c-0.3-0.5-0.6-1-0.8-1.6c5.2,0,10.5,0,15.7,0C58.3,161.5,60.7,161.6,63,162.7"/>
		<path class="st3" d="M43.8,137.4c1.2,0.1,2.3-0.4,3.4-0.9c1.8-0.9,3.7-1.7,5.8-1.9c2.3-0.2,4.6,0.1,6.6,1.2c2.9,1.5,5.9,2.2,9.1,2
			c2.6-0.1,5.2,0,7.7,0c1.3-0.6,2.7-0.5,4,0c0.5,0.4,0.9,1,1.2,1.6c-0.1,0.1-0.2,0.2-0.3,0.2c-1.7,0.2-3.5,0.5-5.2-0.2
			c-2.9,0-5.7-0.1-8.6,0c-2.8,0.1-5.3-0.5-7.8-1.8c-1.7-1-3.6-1.4-5.6-1.4c-2,0-3.8,0.6-5.6,1.5c-1.9,1-4,1.6-6.2,1.6
			C42.7,138.7,43.2,138,43.8,137.4"/>
		<path class="st2" d="M76.1,139.4c1.8,0,3.7,0,5.5,0c2,2.8,3.2,5.9,3.7,9.2c-1.8-0.3-3.3-1.2-4.7-2.3c-1.7-1.3-3.5-2.3-5.5-3
			c0.8-0.4,0.6-1.2,0.8-1.9C76.1,140.8,76.3,140.1,76.1,139.4"/>
		<path class="st3" d="M54.9,175.1c0.2,0,0.3-0.2,0.2-0.4c-1-3,0.1-4.9,3.3-5.6c1.8-0.4,3.6-0.2,5.3,0.6c2.4,1.1,3.6,4.2,0.5,6.4
			C61,176.5,57.9,176.1,54.9,175.1"/>
		<path class="st2" d="M80.5,137.8c-1.3,0-2.7,0-4,0c0.1-1.2,0.1-2.5,0.2-3.7C78.2,135.1,79.4,136.4,80.5,137.8"/>
		<path class="st3" d="M38.5,150.4c0.4,0.2,0.9,0.2,1.3,0.2c4.1,0,8.2,0,12.2,0c0.4,0,0.8-0.1,1.1,0.2c0,0,0,0,0,0
			c-0.4,0.3-0.8,0.2-1.2,0.2c-4.4,0-8.8,0-13.1,0c-0.1,0-0.2,0.1-0.3,0.2l-0.2,0.6C38.3,151.3,38.3,150.8,38.5,150.4"/>
		<path class="st3" d="M50.6,141.9c0-1.8,1.4-3.3,3.2-3.2c1.8,0,3.3,1.6,3.3,3.3c0,1.8-1.5,3.1-3.3,3.1
			C51.9,145.1,50.6,143.8,50.6,141.9"/>
		<path class="st2" d="M38.5,151.2c0-0.1,0-0.1,0-0.2c0.2-0.1,0.4-0.1,0.6-0.1c4.5,0,9,0,13.5,0c0.2,0,0.4,0,0.6,0.1
			c-0.2,0.4-0.5,0.2-0.8,0.2C47.8,151.2,43.1,151.2,38.5,151.2"/>
		<path class="st2" d="M53.2,151c-4.9,0-9.8,0-14.7,0c0.2-0.3,0.6-0.2,0.9-0.2c4.6,0,9.2,0,13.8,0C53.2,150.8,53.2,150.9,53.2,151"
			/>
		<path class="st3" d="M70.2,154.9c1.8,0.4,3.3,1.3,4.1,3.1c1.3,3-1,6.6-4.3,6.7c-2.3,0.1-3.8-1-4.8-3.1c-0.1-0.2-0.2-0.5-0.3-0.7
			c-0.1-1.6,0-3.1,1.2-4.3c0.8-0.8,1.7-1.5,2.9-1.6C69.4,154.9,69.9,155.1,70.2,154.9L70.2,154.9z"/>
		<path class="st3" d="M70.2,154.9c-0.4,0.3-0.8,0.2-1.2,0.2C69.4,154.8,69.9,154.9,70.2,154.9"/>
		<path class="st2" d="M60.5,175.3c-1.4,0-2.6-0.1-3.5-1.1c-0.8-0.8-0.9-1.7,0-2.6c1.4-1.3,3.1-1.1,4.8-1c0.5,0,1,0.2,1.5,0.5
			c0.7,0.5,1.3,1,1.2,1.9c-0.1,0.9-0.7,1.4-1.4,1.7C62.1,175.2,61.2,175.4,60.5,175.3"/>
		<path class="st2" d="M55.4,141.9c0,0.9-0.7,1.6-1.6,1.6c-0.9,0-1.6-0.7-1.6-1.6c0-0.8,0.8-1.6,1.6-1.6
			C54.7,140.2,55.4,141,55.4,141.9"/>
		<path class="st2" d="M68.7,156.9c1.6-0.5,3,0,3.9,1.3c0.7,1.1,0.6,2.7-0.2,3.7c-1,1.2-2.4,1.6-3.8,1c-1.3-0.5-2.6-2.3-1.9-3.9
			C67.3,158.2,67.8,157.4,68.7,156.9"/>
		<path class="st2" d="M68.7,156.9c-0.6,0.7-1.1,1.6-2,2.2C67,157.9,67.6,157.2,68.7,156.9"/>
		<path class="st4" d="M72.5,154.6c0,0-1.6-1.3-0.7-4.1c0-0.1-0.2-1.3,0.5-1.6c0,0,0-1.6,1-1.5c0,0,0.2-0.6,1.1-0.7
			c0,0,0.5-0.2,0.2,3.8L72.5,154.6z"/>
		<path class="st5" d="M63.9,179.4c0,0-0.3-11.6-0.6-13.5c0,0-0.9-6.6,4.5-10.3c0,0,1.2-0.9,2.2-3.6c0,0,0.8-2.2,2.2-1.6
			c0,0,1.3,0.8-0.4,3.2c0,0-2.2,3.4-1.9,4.5c0,0,1.3-1.9,2.5-2.8c0,0,0.1-1.9,0.8-2.9c0,0-0.5-1.2-0.3-2.3c0,0-0.7-1.8,0-2.9
			c0,0,1-0.8,2.4,5.4c0,0,0.1,1.2-0.9,4.1c0,0,0.4,3-1.9,3.8c0,0-4.6,3.2-4.7,5.1c0,0,2.6,12.2,3.2,13.8L63.9,179.4z"/>
		<path class="st6" d="M69.9,158.7c0,0,0.7-1.3,1-1.8c0,0-0.7,1-0.7-0.1c0,0,0.9-1.7,1.5-2.8c0,0-1.4,2.3-1.9,2.5
			C69.7,156.5,70,157.7,69.9,158.7"/>
		<path class="st6" d="M70.7,157.1c0,0,0.9-1.3,1.6-1.7c0,0,0.2-2.4,0.9-3c0,0-0.6-1.2-0.3-2.3c0,0-0.9-1.8,0-2.9
			c0,0-0.4,2.4,0.2,2.6c0,0,0,2.1,0.4,2.4c0,0-0.9,1.8-0.7,3.2c0,0-2.7,2.5-3,3.1L70.7,157.1z"/>
		<path class="st6" d="M74.5,156.8c0,0,0.1,1.4-0.3,2.3c0,0-0.2,1.1-1.6,1.6l-1.4,1l2.2-1.9C73.3,159.7,74.4,158.7,74.5,156.8"/>
		<path class="st7" d="M73.3,147.3c0,0,1,0.8,1.4,2.7l-1.1-3.1C73.6,146.9,73.5,146.9,73.3,147.3"/>
		<path class="st7" d="M72.7,153.6l-0.3-0.9c0,0,0,1,0.1,1.5L72.7,153.6z"/>
		<polygon class="st7" points="63.9,179.4 65.1,179.4 63.4,168 		"/>
		<path class="st8" d="M67.9,155.6c0,0-6.4,3.6-4.4,12.4c0,0-0.5-5.5,2.1-8.5c0,0,4.2-3.6,4.1-6.5C69.6,153,68.4,155.1,67.9,155.6"
			/>
		<path class="st9" d="M76.9,135.7c-1.8,0-4.6,0.7-7.8,2.1l6.4,5.9C76.7,140.3,77.1,137.4,76.9,135.7"/>
		<path class="st10" d="M51.8,167.9c0.8-0.4,6.2-3.6,11.3-9.1c4.2-4.6,4-9.6,3.5-12.3c-2.8-0.2-7.8,0-12,4.5
			c-5.1,5.5-7.8,11.2-8.2,12L51.8,167.9z"/>
		<path class="st11" d="M58.1,145.4c-7.5,8.2-10.3,14.6-10.9,15.8l6.7,6.2c1.1-0.7,7.3-4,14.9-12.1c3.3-3.6,5.5-7.9,6.8-11.6
			l-6.4-5.9C65.5,139.3,61.4,141.8,58.1,145.4"/>
		<path class="st12" d="M75.5,143.6l-3.2-3l-21.8,23.6l3.4,3.1c1.1-0.7,7.3-4,14.9-12.1C72.1,151.7,74.3,147.4,75.5,143.6"/>
		<path class="st13" d="M66.3,147.2c-1.3-1.2-3.3-1.1-4.4,0.2c-1.2,1.3-1.1,3.3,0.2,4.4c1.3,1.2,3.3,1.1,4.4-0.2
			C67.7,150.4,67.6,148.4,66.3,147.2"/>
		<path class="st10" d="M65.3,153c2-0.6,3-2.7,2.4-4.7c-0.6-2-2.7-3-4.7-2.4c-2,0.6-3,2.7-2.4,4.7C61.3,152.6,63.4,153.7,65.3,153
			 M65.1,152.3c-1.5,0.5-3.2-0.3-3.6-1.9c-0.5-1.5,0.4-3.2,1.9-3.6c1.5-0.5,3.2,0.3,3.6,1.9C67.4,150.1,66.6,151.8,65.1,152.3"/>
	</g>
	<g>
		<defs>
			<path id="SVGID_3_" d="M38.3,152.6c0,13.1,10.6,23.7,23.7,23.7s23.7-10.6,23.7-23.7c0-13.1-10.6-23.7-23.7-23.7
				S38.3,139.5,38.3,152.6"/>
		</defs>
		<clipPath id="SVGID_4_">
			<use xlink:href="#SVGID_3_"  style="overflow:visible;"/>
		</clipPath>
		<g class="st14">
			<g>
				<defs>
					<rect id="SVGID_5_" x="61" y="146.3" width="6.3" height="6.3"/>
				</defs>
				<clipPath id="SVGID_6_">
					<use xlink:href="#SVGID_5_"  style="overflow:visible;"/>
				</clipPath>
				<path class="st15" d="M65.1,152.5c1.7-0.5,2.6-2.3,2-4c-0.5-1.7-2.3-2.6-4-2c-1.7,0.5-2.6,2.3-2,4
					C61.7,152.1,63.5,153.1,65.1,152.5"/>
			</g>
		</g>
		<g class="st16">
			<g>
				<defs>
					<rect id="SVGID_7_" x="61.8" y="147" width="4.9" height="2.1"/>
				</defs>
				<clipPath id="SVGID_8_">
					<use xlink:href="#SVGID_7_"  style="overflow:visible;"/>
				</clipPath>
				<path class="st17" d="M61.8,148.5c0.4-1,1.5-1.6,2.7-1.5c1.1,0.1,2,1,2.2,2.1c0,0-1.5-0.6-2.5-0.7
					C63.2,148.3,61.8,148.5,61.8,148.5"/>
			</g>
		</g>
		<path class="st18" d="M72.3,140.7l3.2,3c1.1-3.3,1.5-6.2,1.4-8c0,0,0,0,0,0L72.3,140.7z"/>
		<path class="st19" d="M50.9,160.5c2.3-2.5,2.4-6.2,0.2-8.2c-2.2-2-5.9-1.7-8.2,0.8c-2.3,2.5-2.4,6.2-0.2,8.2
			C45,163.4,48.6,163,50.9,160.5"/>
		<path class="st19" d="M62,170.8c2.3-2.5,2.4-6.2,0.2-8.2c-2.2-2-5.9-1.7-8.2,0.8c-2.3,2.5-2.4,6.2-0.2,8.2
			C56.1,173.6,59.7,173.2,62,170.8"/>
	</g>
	<g>
		<defs>
			
				<rect id="SVGID_9_" x="42.9" y="156" transform="matrix(0.6779 -0.7352 0.7352 0.6779 -100.9165 87.1588)" width="12.3" height="5.4"/>
		</defs>
		<clipPath id="SVGID_10_">
			<use xlink:href="#SVGID_9_"  style="overflow:visible;"/>
		</clipPath>
		<path class="st20" d="M43,153.2c-2.3,2.5-2.4,6.2-0.2,8.2c2.2,2,5.9,1.7,8.2-0.8c2.3-2.5,2.4-6.2,0.2-8.2
			C49,150.4,45.3,150.7,43,153.2"/>
	</g>
	<g>
		<defs>
			
				<rect id="SVGID_11_" x="53.9" y="166.2" transform="matrix(0.6779 -0.7352 0.7352 0.6779 -104.8408 98.5453)" width="12.3" height="5.4"/>
		</defs>
		<clipPath id="SVGID_12_">
			<use xlink:href="#SVGID_11_"  style="overflow:visible;"/>
		</clipPath>
		<path class="st21" d="M54.1,163.4c-2.3,2.5-2.4,6.2-0.2,8.2c2.2,2,5.9,1.7,8.2-0.8c2.3-2.5,2.4-6.2,0.2-8.2
			C60,160.5,56.4,160.9,54.1,163.4"/>
	</g>
	<g>
		<defs>
			<path id="SVGID_13_" d="M38.3,152.6c0,13.1,10.6,23.7,23.7,23.7s23.7-10.6,23.7-23.7c0-13.1-10.6-23.7-23.7-23.7
				S38.3,139.5,38.3,152.6"/>
		</defs>
		<clipPath id="SVGID_14_">
			<use xlink:href="#SVGID_13_"  style="overflow:visible;"/>
		</clipPath>
		<polygon class="st22" points="57.8,172.9 52.2,167.8 51.5,169.4 56.3,173.9 		"/>
		<polygon class="st22" points="46.7,162.7 41.2,157.5 40.4,159.2 45.2,163.6 		"/>
		<path class="st23" d="M72.3,150.4c-0.2,0-0.3-0.1-0.4-0.1c0,0,0,0.1,0,0.1c-0.5,1.6-0.2,2.7,0.1,3.4
			C72.4,152.9,73.2,150.9,72.3,150.4"/>
		<path class="st24" d="M68.2,164.9c0-0.1,0-0.1-0.1-0.2c-0.1-0.9-0.1-1.8,0.1-2.7c0,0,0-0.1,0-0.1c0.1-1,0.3-2.2,1.1-2.9
			c0-0.1,0-0.2,0.1-0.3c0.2-0.5,0.4-1,0.7-1.5c0.4-1.4,1.8-3.5,1.8-3.5c0.2-0.3,0.4-0.6,0.5-0.9c0.2-0.5,0.3-1,0.3-1.5
			c-0.1-0.6-0.5-0.8-0.5-0.8c-1.5-0.7-2.2,1.6-2.2,1.6c-1,2.6-2.2,3.6-2.2,3.6c-5.4,3.6-4.5,10.3-4.5,10.3
			c0.3,1.9,0.6,13.5,0.6,13.5l7.3,0c-0.6-1.7-3.2-13.8-3.2-13.8C68,165.4,68,165.2,68.2,164.9"/>
		<path class="st25" d="M70.2,156.9c0,0,0-0.1,0-0.1c0,0,0.9-1.7,1.5-2.8c0,0-1.4,2.3-1.9,2.5c0,0,0.1,0.5,0.2,1
			C70,157.3,70.1,157.1,70.2,156.9"/>
		<polygon class="st26" points="63.9,179.4 65.1,179.4 63.4,167.9 		"/>
		<path class="st27" d="M67.9,155.6c0,0-6.4,3.6-4.4,12.4c0,0-0.5-5.5,2.1-8.5c0,0,4.2-3.6,4.1-6.5C69.7,153,68.4,155.1,67.9,155.6"
			/>
	</g>
</g>
<path class="st28" d="M227.7,100.8c0.5-3.4,1.7-6.6,3.7-9.4c0.4-0.2,0.8-0.4,1.3-0.5c1.8-0.2,3.5-0.8,5.1-1.6c3.7-1.9,7.4-1.9,11,0
	c2.6,1.3,5.2,2,8.1,1.8c2.3-0.1,4.6,0,6.9,0c0.5,0,1,0,1.4,0.2c0.2,0.2,0.4,0.4,0.3,0.7c0,1.1-0.2,2.1-0.6,3.1
	c-0.1,0.3-0.4,0.5-0.7,0.5c-1.4,0-2.7-0.5-4.2-0.5c-3.7-0.1-7.1,1-10,3.3c-2.1,1.6-4.4,2.7-7.1,3.1c-0.4,0.1-0.8,0.1-1.2,0.1
	c-4.2,0-8.5,0-12.7,0c-0.3,0-0.6,0-0.9-0.1C227.8,101.4,227.5,101.2,227.7,100.8"/>
<path class="st28" d="M227.8,108.6c-0.3-1.6-0.5-3.2-0.4-4.9c0.1-0.2,0-0.6,0.3-0.8c0.4-0.2,0.8-0.1,1.3-0.1c3.9,0,7.9,0,11.8,0
	c0.4,0,0.8,0,1.2-0.1c0,0,0.1-0.1,0.1-0.1c0.1-0.1,0.2-0.1,0.3-0.1c3.4-0.5,6.3-2,9.1-4c3.4-2.4,7.2-3.1,11.3-2.2
	c0.5,0.1,1,0.2,1.4,0.7c0.1,0.3,0.1,0.6,0,0.9c-0.6,2-1.4,3.9-2.5,5.6c-0.2,0.3-0.4,0.5-0.7,0.6c-0.6,0.1-1.2,0-1.9,0
	c-2.1-0.1-4,0.7-5.5,2.1c-2,1.9-4.4,2.8-7.2,2.8c-5.6,0-11.3,0-16.9,0C228.8,109,228.2,109.1,227.8,108.6"/>
<path class="st28" d="M232.8,89.4c5.3-6.2,12-9.1,20.2-8.5c4.8,0.3,9.1,2,12.8,5.1c0.7,1.3,0.2,2.5-0.1,3.7
	c-0.4,0.4-0.9,0.4-1.4,0.4c-3,0-6.1,0-9.1,0c-2.1,0-4-0.7-5.8-1.6c-1.4-0.7-2.9-1.2-4.4-1.5c-2.9-0.4-5.5,0.2-8,1.5
	c-1,0.5-2,1-3.1,1.2C233.5,89.8,233,90,232.8,89.4"/>
<path class="st28" d="M244,127.1c-3.4-1-6.3-2.7-8.8-5.1c0.2-0.3,0.5-0.4,0.8-0.4c5.1-1,9.7-3,14-5.8c0.1-0.1,0.2-0.1,0.3-0.1
	c1.3,0.1,2.2,1.1,3.1,1.9c2.3,2,4.8,2.7,7.8,1.9c1.4-0.4,2.5-1.2,3.5-2.2c1.8-1.7,4-2.4,6.4-2.4c0.4,0,0.8,0,1.1,0.3
	c-3.4,6.7-8.8,10.8-16,12.5c-1,0.2-2,0.5-3,0.4c-0.1-0.5,0.3-0.7,0.6-0.9c1.5-1.6,1.2-3.7-0.6-4.9c-2.2-1.4-4.6-1.5-7-0.4
	c-1.4,0.6-2.9,2.4-1.9,4.4C244.6,126.9,244.5,126.9,244,127.1"/>
<path class="st28" d="M229.1,113.5c-0.4-1.1-0.9-2.1-1-3.3c0.5-0.5,1.1-0.4,1.7-0.4c5.5,0,11-0.1,16.4,0c3.1,0,5.8-0.9,8-3
	c1.3-1.2,2.8-1.8,4.5-1.9c0.5,0,0.9,0,1.3,0.3c0.4,0.8-0.2,1.2-0.5,1.7c-0.1,0.1-0.2,0.1-0.3,0.2c-0.4,0.1-0.8,0.1-1.1,0.2
	c-2.4,0.7-3.6,2.2-3.8,4.7c0,0.3,0,0.7-0.1,1c-0.7,0.8-1.4,1.6-2.5,1.9c-0.1,0-0.1,0-0.2,0c-2.3-1.1-4.8-1-7.3-0.9
	c-4.5,0-8.9,0-13.4,0C230.2,113.9,229.6,114,229.1,113.5"/>
<path class="st28" d="M261,103.9c1.2-2.2,2.3-4.4,2.9-6.9c0.4-0.3,0.8-0.1,1.2,0.1c1.2,0.5,2.3,1.1,3.3,1.9c1.6,1.3,3.3,2.3,5.3,2.8
	c0.3,0.1,0.6,0.3,0.8,0.5c0.3,2.1,0.1,4.2-0.2,6.3c-0.2,0.2-0.5,0.3-0.8,0.3c-3.5,0.2-6.8-0.2-9.4-2.9c-0.6-0.6-1.4-1.1-2.2-1.4
	C261.6,104.5,261.2,104.4,261,103.9"/>
<path class="st28" d="M250.3,115.7c-0.6,0.8-1.5,1.2-2.4,1.7c-3.9,2.4-8.2,3.9-12.8,4.6c-2.2-1.9-4-4.2-5.2-6.9
	c0.3-0.4,0.8-0.4,1.3-0.4c5.4,0,10.8,0,16.1,0C248.4,114.8,249.5,114.7,250.3,115.7"/>
<path class="st29" d="M261,103.9c1.6,0.5,2.9,1.4,4.1,2.6c1.6,1.4,3.5,2,5.6,2.1c1.2,0.1,2.4,0,3.6,0c0,0.5-0.1,1.1-0.4,1.6
	c-0.2,0.2-0.5,0.3-0.8,0.3c-3.8,0.3-7.3-0.4-10.1-3.2c-0.6-0.6-1.2-1-2-1.2c-0.4-0.1-0.8-0.2-1-0.6c-2.1-0.5-3.9,0-5.4,1.4
	c-2.4,2.3-5.1,3.4-8.5,3.3c-6-0.1-12.1,0-18.1,0c-0.3-0.5-0.4-1-0.4-1.6c6.4,0,12.8,0,19.2,0c2.2,0,4.3-0.7,5.9-2.3
	C255.2,104,257.9,103.3,261,103.9"/>
<path class="st29" d="M274.6,102.4c-2.4-0.5-4.5-1.7-6.4-3.2c-1.2-1-2.6-1.7-4.2-2.1c-4.8-1.6-9.1-0.7-13.1,2.2
	c-2.6,1.9-5.4,3.3-8.7,3.4c-0.2,0.1-0.5,0.1-0.8,0.1c-4.3,0-8.5,0-12.8,0c-0.5,0-0.9,0-1.2-0.5c0-0.5-0.1-1.1,0.2-1.6
	c0.1,0.5,0.5,0.4,0.9,0.4c4.5,0,9,0.1,13.5,0c2.9-0.1,5.4-1.3,7.6-3c4.2-3.2,8.9-4.2,14-2.9c0.2,0,0.3,0.1,0.5,0.1
	c1.6,0,2.9,0.8,4.2,1.7c1.8,1.2,3.6,2.5,5.6,3.3c0.2,0.1,0.3,0.2,0.4,0.3C274.5,101.2,274.6,101.8,274.6,102.4"/>
<path class="st28" d="M260.1,105.5c1.1,0.1,2.2,0.5,3,1.3c2.4,2.5,5.4,3.6,8.8,3.4c0.7,0,1.4,0,2.1,0c-0.1,1.2-0.6,2.2-1,3.3
	c-0.4,0.4-0.9,0.4-1.4,0.3c-3.1-0.2-5.7,0.9-8.1,3c-2.9,2.6-6.6,2.5-9.4-0.2c-0.5-0.4-0.9-0.8-1.4-1.2c-0.3-0.2-0.7-0.3-0.6-0.8
	c0.5-0.7,1.3-1.2,2-1.8c0.5,0,0.6,0.5,0.7,0.8c1.1,2,2.6,2.8,4.8,2.6c1.8-0.2,3.3-1.5,3.8-3.5c0.6-2.1-0.7-4.5-2.8-5.3
	c-0.4-0.2-1-0.1-1.2-0.7C259.5,106.4,259.8,106,260.1,105.5"/>
<path class="st29" d="M252,114.7c1,0.7,1.9,1.5,2.8,2.2c2.6,2.1,6.1,2,8.5-0.4c2.3-2.2,5-3.2,8.2-3c0.5,0,0.9,0,1.4,0
	c-0.2,0.6-0.4,1.1-0.8,1.6c-2.3-0.1-4.4,0.2-6.3,1.5c-0.4,0.3-0.7,0.6-1,0.9c-3.5,3.4-8.4,3.4-11.9,0c-0.8-0.8-1.7-1.3-2.7-1.8
	c-1.3-0.5-2.6-0.6-4-0.6c-5.4,0-10.9,0-16.3,0c-0.3-0.5-0.6-1-0.8-1.6c5.2,0,10.5,0,15.7,0C247.4,113.5,249.8,113.6,252,114.7"/>
<path class="st29" d="M232.8,89.4c1.2,0.1,2.3-0.4,3.4-0.9c1.8-0.9,3.7-1.7,5.8-1.9c2.3-0.2,4.6,0.1,6.6,1.2c2.9,1.5,5.9,2.2,9.1,2
	c2.6-0.1,5.2,0,7.7,0c1.3-0.6,2.7-0.5,4,0c0.5,0.4,0.9,1,1.2,1.6c-0.1,0.1-0.2,0.2-0.3,0.2c-1.7,0.2-3.5,0.5-5.2-0.2
	c-2.9,0-5.7-0.1-8.6,0c-2.8,0.1-5.3-0.5-7.8-1.8c-1.7-1-3.6-1.4-5.6-1.4c-2,0-3.8,0.6-5.6,1.5c-1.9,1-4,1.6-6.2,1.6
	C231.8,90.6,232.2,90,232.8,89.4"/>
<path class="st28" d="M265.2,91.4c1.8,0,3.7,0,5.5,0c2,2.8,3.2,5.9,3.7,9.2c-1.8-0.3-3.3-1.2-4.7-2.3c-1.7-1.3-3.5-2.3-5.5-3
	c0.8-0.4,0.6-1.2,0.8-1.9C265.1,92.8,265.3,92.1,265.2,91.4"/>
<path class="st29" d="M244,127.1c0.2,0,0.3-0.2,0.2-0.4c-1-3,0.1-4.9,3.3-5.6c1.8-0.4,3.6-0.2,5.3,0.6c2.4,1.1,3.6,4.2,0.5,6.4
	C250,128.5,247,128.1,244,127.1"/>
<path class="st28" d="M269.5,89.8c-1.3,0-2.7,0-4,0c0.1-1.2,0.1-2.5,0.2-3.7C267.2,87.1,268.5,88.4,269.5,89.8"/>
<path class="st29" d="M227.5,102.4c0.4,0.2,0.9,0.2,1.3,0.2c4.1,0,8.2,0,12.2,0c0.4,0,0.8-0.1,1.1,0.2c0,0,0,0,0,0
	c-0.4,0.3-0.8,0.2-1.2,0.2c-4.4,0-8.8,0-13.1,0c-0.1,0-0.2,0.1-0.3,0.2l-0.2,0.6C227.3,103.3,227.3,102.8,227.5,102.4"/>
<path class="st29" d="M239.7,93.9c0-1.8,1.4-3.3,3.2-3.2c1.8,0,3.3,1.6,3.3,3.3c0,1.8-1.5,3.1-3.3,3.1
	C240.9,97.1,239.7,95.8,239.7,93.9"/>
<path class="st28" d="M227.5,103.2c0-0.1,0-0.1,0-0.2c0.2-0.1,0.4-0.1,0.6-0.1c4.5,0,9,0,13.5,0c0.2,0,0.4,0,0.6,0.1
	c-0.2,0.4-0.5,0.2-0.8,0.2C236.8,103.2,232.2,103.2,227.5,103.2"/>
<path class="st28" d="M242.2,103c-4.9,0-9.8,0-14.7,0c0.2-0.3,0.6-0.2,0.9-0.2c4.6,0,9.2,0,13.8,0
	C242.2,102.8,242.2,102.9,242.2,103"/>
<path class="st29" d="M259.3,106.9c1.8,0.4,3.3,1.3,4.1,3.1c1.3,3-1,6.6-4.3,6.7c-2.3,0.1-3.8-1-4.8-3.1c-0.1-0.2-0.2-0.5-0.3-0.7
	c-0.1-1.6,0-3.1,1.2-4.3c0.8-0.8,1.7-1.5,2.9-1.6C258.5,106.8,258.9,107.1,259.3,106.9L259.3,106.9z"/>
<path class="st29" d="M259.3,106.9c-0.4,0.3-0.8,0.2-1.2,0.2C258.5,106.8,258.9,106.9,259.3,106.9"/>
<path class="st28" d="M249.5,127.3c-1.4,0-2.6-0.1-3.5-1.1c-0.8-0.8-0.9-1.7,0-2.6c1.4-1.3,3.1-1.1,4.8-1c0.5,0,1,0.2,1.5,0.5
	c0.7,0.5,1.3,1,1.2,1.9c-0.1,0.9-0.7,1.4-1.4,1.7C251.1,127.1,250.3,127.4,249.5,127.3"/>
<path class="st28" d="M244.4,93.9c0,0.9-0.7,1.6-1.6,1.6c-0.9,0-1.6-0.7-1.6-1.6c0-0.8,0.8-1.6,1.6-1.6
	C243.7,92.2,244.4,93,244.4,93.9"/>
<path class="st28" d="M257.7,108.8c1.6-0.5,3,0,3.9,1.3c0.7,1.1,0.6,2.7-0.2,3.7c-1,1.2-2.4,1.6-3.8,1c-1.3-0.5-2.6-2.3-1.9-3.9
	C256.3,110.2,256.9,109.4,257.7,108.8"/>
<path class="st28" d="M257.7,108.8c-0.6,0.7-1.1,1.6-2,2.2C256,109.9,256.6,109.2,257.7,108.8"/>
<path class="st30" d="M261.6,106.6c0,0-1.6-1.3-0.7-4.1c0-0.1-0.2-1.3,0.5-1.6c0,0,0-1.6,1-1.5c0,0,0.2-0.6,1.1-0.7
	c0,0,0.5-0.2,0.2,3.8L261.6,106.6z"/>
<path class="st31" d="M252.9,131.4c0,0-0.3-11.6-0.6-13.5c0,0-0.9-6.6,4.5-10.3c0,0,1.2-0.9,2.2-3.6c0,0,0.8-2.2,2.2-1.6
	c0,0,1.3,0.8-0.4,3.2c0,0-2.2,3.4-1.9,4.5c0,0,1.3-1.9,2.5-2.8c0,0,0.1-1.9,0.8-2.9c0,0-0.5-1.2-0.3-2.3c0,0-0.7-1.8,0-2.9
	c0,0,1-0.8,2.4,5.4c0,0,0.1,1.2-0.9,4.1c0,0,0.4,3-1.9,3.8c0,0-4.6,3.2-4.7,5.1c0,0,2.6,12.2,3.2,13.8"/>
<path class="st32" d="M258.9,110.7c0,0,0.7-1.3,1-1.8c0,0-0.7,1-0.7-0.1c0,0,0.9-1.7,1.5-2.8c0,0-1.4,2.3-1.9,2.5
	C258.8,108.5,259.1,109.7,258.9,110.7"/>
<path class="st32" d="M259.8,109.1c0,0,0.9-1.3,1.6-1.7c0,0,0.2-2.4,0.9-3c0,0-0.6-1.2-0.3-2.3c0,0-0.9-1.8,0-2.9
	c0,0-0.4,2.4,0.2,2.6c0,0,0,2.1,0.4,2.4c0,0-0.9,1.8-0.7,3.2c0,0-2.7,2.5-3,3.1L259.8,109.1z"/>
<path class="st32" d="M263.5,108.7c0,0,0.1,1.4-0.3,2.3c0,0-0.2,1.1-1.6,1.6l-1.4,1l2.2-1.9C262.3,111.7,263.4,110.7,263.5,108.7"/>
<path class="st33" d="M262.3,99.3c0,0,1,0.8,1.4,2.7l-1.1-3.1C262.7,98.9,262.5,98.9,262.3,99.3"/>
<path class="st33" d="M261.7,105.6l-0.3-0.9c0,0,0,1,0.1,1.5L261.7,105.6z"/>
<polyline class="st33" points="254.1,131.4 252.4,119.9 252.9,131.4 "/>
<path class="st34" d="M256.9,107.6c0,0-6.4,3.6-4.4,12.4c0,0-0.5-5.5,2.1-8.5c0,0,4.2-3.6,4.1-6.5
	C258.7,105,257.4,107.1,256.9,107.6"/>
<path class="st35" d="M266,87.7c-1.8,0-4.6,0.7-7.8,2.1l6.4,5.9C265.7,92.3,266.1,89.4,266,87.7"/>
<path class="st36" d="M240.9,119.9c0.8-0.4,6.2-3.6,11.3-9.1c4.2-4.6,4-9.6,3.5-12.3c-2.8-0.2-7.8,0-12,4.5
	c-5.1,5.5-7.8,11.2-8.2,12L240.9,119.9z"/>
<path class="st37" d="M247.1,97.4c-7.5,8.2-10.3,14.6-10.9,15.8l6.7,6.2c1.1-0.7,7.3-4,14.9-12.1c3.3-3.6,5.5-7.9,6.8-11.6l-6.4-5.9
	C254.5,91.3,250.4,93.8,247.1,97.4"/>
<path class="st38" d="M264.6,95.6l-3.2-3l-21.8,23.6l3.4,3.1c1.1-0.7,7.3-4,14.9-12.1C261.1,103.7,263.3,99.4,264.6,95.6"/>
<path class="st39" d="M255.4,99.2c-1.3-1.2-3.3-1.1-4.4,0.2c-1.2,1.3-1.1,3.3,0.2,4.4c1.3,1.2,3.3,1.1,4.4-0.2
	C256.7,102.3,256.6,100.4,255.4,99.2"/>
<path class="st36" d="M254.4,105c2-0.6,3-2.7,2.4-4.7c-0.6-2-2.7-3-4.7-2.4c-2,0.6-3,2.7-2.4,4.7C250.3,104.6,252.4,105.7,254.4,105
	 M254.1,104.3c-1.5,0.5-3.2-0.3-3.6-1.9c-0.5-1.5,0.4-3.2,1.9-3.6c1.5-0.5,3.2,0.3,3.6,1.9C256.5,102.1,255.6,103.8,254.1,104.3"/>
<path class="st40" d="M227.3,104.6c0,13.1,10.6,23.7,23.7,23.7c13.1,0,23.7-10.6,23.7-23.7S264.1,80.9,251,80.9
	C237.9,80.9,227.3,91.5,227.3,104.6"/>
<g>
	<defs>
		<path id="SVGID_15_" d="M227.3,104.6c0,13.1,10.6,23.7,23.7,23.7c13.1,0,23.7-10.6,23.7-23.7S264.1,80.9,251,80.9
			C237.9,80.9,227.3,91.5,227.3,104.6"/>
	</defs>
	<clipPath id="SVGID_16_">
		<use xlink:href="#SVGID_15_"  style="overflow:visible;"/>
	</clipPath>
	<g class="st41">
		<g>
			<defs>
				<rect id="SVGID_17_" x="250.1" y="98.3" width="6.3" height="6.3"/>
			</defs>
			<clipPath id="SVGID_18_">
				<use xlink:href="#SVGID_17_"  style="overflow:visible;"/>
			</clipPath>
			<path class="st42" d="M254.2,104.5c1.7-0.5,2.6-2.3,2-4c-0.5-1.7-2.3-2.6-4-2c-1.7,0.5-2.6,2.3-2,4
				C250.7,104.1,252.5,105,254.2,104.5"/>
		</g>
	</g>
	<g class="st43">
		<g>
			<defs>
				<rect id="SVGID_19_" x="250.8" y="99" width="4.9" height="2.1"/>
			</defs>
			<clipPath id="SVGID_20_">
				<use xlink:href="#SVGID_19_"  style="overflow:visible;"/>
			</clipPath>
			<path class="st44" d="M250.8,100.5c0.4-1,1.5-1.6,2.7-1.5c1.1,0.1,2,1,2.2,2.1c0,0-1.5-0.6-2.5-0.7
				C252.2,100.3,250.8,100.5,250.8,100.5"/>
		</g>
	</g>
	<path class="st45" d="M261.4,92.7l3.2,3c1.1-3.3,1.5-6.2,1.4-8c0,0,0,0,0,0L261.4,92.7z"/>
	<path class="st46" d="M240,112.5c2.3-2.5,2.4-6.2,0.2-8.2c-2.2-2-5.9-1.7-8.2,0.8c-2.3,2.5-2.4,6.2-0.2,8.2
		C234,115.4,237.7,115,240,112.5"/>
	<path class="st46" d="M251.1,122.7c2.3-2.5,2.4-6.2,0.2-8.2c-2.2-2-5.9-1.7-8.2,0.8c-2.3,2.5-2.4,6.2-0.2,8.2
		C245.1,125.6,248.8,125.2,251.1,122.7"/>
</g>
<g>
	<defs>
		
			<rect id="SVGID_21_" x="231.9" y="108" transform="matrix(0.6779 -0.7352 0.7352 0.6779 -4.7306 210.666)" width="12.3" height="5.4"/>
	</defs>
	<clipPath id="SVGID_22_">
		<use xlink:href="#SVGID_21_"  style="overflow:visible;"/>
	</clipPath>
	<path class="st47" d="M232.1,105.2c-2.3,2.5-2.4,6.2-0.2,8.2c2.2,2,5.9,1.7,8.2-0.8c2.3-2.5,2.4-6.2,0.2-8.2
		C238,102.3,234.4,102.7,232.1,105.2"/>
</g>
<g>
	<defs>
		
			<rect id="SVGID_23_" x="242.9" y="118.2" transform="matrix(0.6779 -0.7352 0.7352 0.6779 -8.6547 222.0526)" width="12.3" height="5.4"/>
	</defs>
	<clipPath id="SVGID_24_">
		<use xlink:href="#SVGID_23_"  style="overflow:visible;"/>
	</clipPath>
	<path class="st48" d="M243.1,115.4c-2.3,2.5-2.4,6.2-0.2,8.2c2.2,2,5.9,1.7,8.2-0.8c2.3-2.5,2.4-6.2,0.2-8.2
		S245.4,112.9,243.1,115.4"/>
</g>
<polygon class="st36" points="246.8,124.9 241.3,119.8 240.6,121.4 245.4,125.8 "/>
<polygon class="st36" points="235.7,114.6 230.2,109.5 229.5,111.2 234.3,115.6 "/>
<path class="st30" d="M261.4,102.4c-0.2,0-0.3-0.1-0.4-0.1c0,0,0,0.1,0,0.1c-0.5,1.6-0.2,2.7,0.1,3.4
	C261.4,104.9,262.3,102.9,261.4,102.4"/>
<path class="st31" d="M260.2,131.4c-0.6-1.7-3.2-13.8-3.2-13.8c0-0.2,0.1-0.5,0.2-0.7"/>
<path class="st31" d="M257.2,116.9c0-0.1,0-0.1-0.1-0.2c-0.1-0.9-0.1-1.8,0.1-2.7c0,0,0-0.1,0-0.1c0.1-1,0.3-2.2,1.1-2.9
	c0-0.1,0-0.2,0.1-0.3c0.2-0.5,0.4-1,0.7-1.5c0.4-1.4,1.8-3.5,1.8-3.5c0.2-0.3,0.4-0.6,0.5-0.9c0.2-0.5,0.3-1,0.3-1.5
	c-0.1-0.6-0.5-0.8-0.5-0.8c-1.5-0.7-2.2,1.6-2.2,1.6c-1,2.6-2.2,3.6-2.2,3.6c-5.4,3.6-4.5,10.3-4.5,10.3c0.3,1.9,0.6,13.5,0.6,13.5"
	/>
<path class="st32" d="M259.3,108.9c0,0,0-0.1,0-0.1c0,0,0.9-1.7,1.5-2.8c0,0-1.4,2.3-1.9,2.5c0,0,0.1,0.5,0.2,1
	C259.1,109.3,259.2,109.1,259.3,108.9"/>
<polyline class="st33" points="254.2,131.4 252.5,119.9 252.9,131.4 "/>
<path class="st34" d="M256.9,107.6c0,0-6.4,3.6-4.4,12.4c0,0-0.5-5.5,2.1-8.5c0,0,4.2-3.6,4.1-6.5
	C258.7,104.9,257.4,107.1,256.9,107.6"/>
<path class="st40" d="M227.3,104.6c0,13.1,10.6,23.7,23.7,23.7c13.1,0,23.7-10.6,23.7-23.7S264.1,80.9,251,80.9
	C237.9,80.9,227.3,91.5,227.3,104.6"/>
</svg>
