<?xml version="1.0" encoding="utf-8"?>
<!-- Generator: Adobe Illustrator 22.1.0, SVG Export Plug-In . SVG Version: 6.00 Build 0)  -->
<svg version="1.1" id="Livello_1" xmlns="http://www.w3.org/2000/svg" xmlns:xlink="http://www.w3.org/1999/xlink" x="0px" y="0px"
	 viewBox="0 0 77.5 53.8" style="enable-background:new 0 0 77.5 53.8;" xml:space="preserve">
<style type="text/css">
	.st0{clip-path:url(#SVGID_2_);fill:#E2819A;}
	.st1{clip-path:url(#SVGID_2_);fill:#E07386;}
	.st2{clip-path:url(#SVGID_2_);fill:#DD9968;}
	.st3{clip-path:url(#SVGID_2_);fill:#E2A979;}
	.st4{clip-path:url(#SVGID_2_);fill:#C9946C;}
	.st5{clip-path:url(#SVGID_2_);fill:#C5895E;}
	.st6{clip-path:url(#SVGID_2_);fill:#F1B885;}
	.st7{clip-path:url(#SVGID_2_);fill:#B85436;}
	.st8{clip-path:url(#SVGID_2_);fill:#232735;}
	.st9{clip-path:url(#SVGID_2_);fill:#FFFFFF;}
	.st10{clip-path:url(#SVGID_2_);fill:#EAEAE9;}
	.st11{clip-path:url(#SVGID_2_);fill:#A1D5E7;}
	.st12{opacity:0.3;clip-path:url(#SVGID_4_);}
	.st13{clip-path:url(#SVGID_6_);fill:#DFDFDF;}
	.st14{opacity:0.5;clip-path:url(#SVGID_4_);}
	.st15{clip-path:url(#SVGID_8_);fill:#FFFFFF;}
	.st16{clip-path:url(#SVGID_4_);fill:#9B392B;}
	.st17{clip-path:url(#SVGID_4_);fill:#D23732;}
	.st18{clip-path:url(#SVGID_10_);fill:#9B392B;}
	.st19{clip-path:url(#SVGID_12_);fill:#9B392B;}
	.st20{clip-path:url(#SVGID_14_);fill:#232735;}
	.st21{clip-path:url(#SVGID_14_);fill:#DD9968;}
	.st22{clip-path:url(#SVGID_14_);fill:#E2A979;}
	.st23{clip-path:url(#SVGID_14_);fill:#C9946C;}
	.st24{clip-path:url(#SVGID_14_);fill:#C5895E;}
	.st25{clip-path:url(#SVGID_14_);fill:#F1B885;}
</style>
<title>Asset 1</title>
<g>
	<g>
		<defs>
			<path id="SVGID_1_" d="M13.5,26.9c0,13.1,10.6,23.7,23.7,23.7S60.9,40,60.9,26.9S50.3,3.2,37.2,3.2S13.5,13.8,13.5,26.9"/>
		</defs>
		<clipPath id="SVGID_2_">
			<use xlink:href="#SVGID_1_"  style="overflow:visible;"/>
		</clipPath>
		<path class="st0" d="M13.8,23.1c0.5-3.4,1.7-6.6,3.7-9.4c0.4-0.2,0.8-0.4,1.3-0.5c1.8-0.2,3.5-0.8,5.1-1.6c3.7-1.9,7.4-1.9,11,0
			c2.6,1.3,5.2,2,8.1,1.8c2.3-0.1,4.6,0,6.9,0c0.5,0,1,0,1.4,0.2c0.2,0.2,0.4,0.4,0.3,0.7c0,1.1-0.2,2.1-0.6,3.1
			c-0.1,0.3-0.4,0.5-0.7,0.5c-1.4,0-2.7-0.5-4.2-0.5c-3.7-0.1-7.1,1-10,3.3c-2.1,1.6-4.4,2.7-7.1,3.1c-0.4,0.1-0.8,0.1-1.2,0.1
			c-4.2,0-8.5,0-12.7,0c-0.3,0-0.6,0-0.9-0.1C13.9,23.7,13.7,23.5,13.8,23.1"/>
		<path class="st0" d="M13.9,31c-0.3-1.6-0.5-3.2-0.4-4.9c0.1-0.2,0-0.6,0.3-0.8c0.4-0.2,0.8-0.1,1.3-0.1c3.9,0,7.9,0,11.8,0
			c0.4,0,0.8,0,1.2-0.1c0,0,0.1-0.1,0.1-0.1c0.1-0.1,0.2-0.1,0.3-0.1c3.4-0.5,6.3-2,9.1-4c3.4-2.4,7.2-3.1,11.3-2.2
			c0.5,0.1,1,0.2,1.4,0.7c0.1,0.3,0.1,0.6,0,0.9c-0.6,2-1.4,3.9-2.5,5.6c-0.2,0.3-0.4,0.5-0.7,0.6c-0.6,0.1-1.2,0-1.9,0
			c-2.1-0.1-4,0.7-5.5,2.1c-2,1.9-4.4,2.8-7.2,2.8c-5.6,0-11.3,0-16.9,0C15,31.3,14.4,31.5,13.9,31"/>
		<path class="st0" d="M19,11.8c5.3-6.2,12-9.1,20.2-8.5c4.8,0.3,9.1,2,12.8,5.1c0.7,1.3,0.2,2.5-0.1,3.7c-0.4,0.4-0.9,0.4-1.4,0.4
			c-3,0-6.1,0-9.1,0c-2.1,0-4-0.7-5.8-1.6c-1.4-0.7-2.9-1.2-4.4-1.5c-2.9-0.4-5.5,0.2-8,1.5c-1,0.5-2,1-3.1,1.2
			C19.7,12.1,19.2,12.4,19,11.8"/>
		<path class="st0" d="M30.1,49.4c-3.4-1-6.3-2.7-8.8-5.1c0.2-0.3,0.5-0.4,0.8-0.4c5.1-1,9.7-3,14-5.8c0.1-0.1,0.2-0.1,0.3-0.1
			c1.3,0.1,2.2,1.1,3.1,1.9c2.3,2,4.8,2.7,7.8,1.9c1.4-0.4,2.5-1.2,3.5-2.2c1.8-1.7,4-2.4,6.4-2.4c0.4,0,0.8,0,1.1,0.3
			c-3.4,6.7-8.8,10.8-16,12.5c-1,0.2-2,0.5-3,0.4c-0.1-0.5,0.3-0.7,0.6-0.9c1.5-1.6,1.2-3.7-0.6-4.9c-2.2-1.4-4.6-1.5-7-0.4
			c-1.4,0.6-2.9,2.4-1.9,4.4C30.8,49.2,30.7,49.3,30.1,49.4"/>
		<path class="st0" d="M15.3,35.9c-0.4-1.1-0.9-2.1-1-3.3c0.5-0.5,1.1-0.4,1.7-0.4c5.5,0,11-0.1,16.4,0c3.1,0,5.8-0.9,8-3
			c1.3-1.2,2.8-1.8,4.5-1.9c0.5,0,0.9,0,1.3,0.3c0.4,0.8-0.2,1.2-0.5,1.7c-0.1,0.1-0.2,0.1-0.3,0.2c-0.4,0.1-0.8,0.1-1.1,0.2
			c-2.4,0.7-3.6,2.2-3.8,4.7c0,0.3,0,0.7-0.1,1c-0.7,0.8-1.4,1.6-2.5,1.9c-0.1,0-0.1,0-0.2,0c-2.3-1.1-4.8-1-7.3-0.9
			c-4.5,0-8.9,0-13.4,0C16.4,36.3,15.8,36.3,15.3,35.9"/>
		<path class="st0" d="M47.2,26.3c1.2-2.2,2.3-4.4,2.9-6.9c0.4-0.3,0.8-0.1,1.2,0.1c1.2,0.5,2.3,1.1,3.3,1.9
			c1.6,1.3,3.3,2.3,5.3,2.8c0.3,0.1,0.6,0.3,0.8,0.5c0.3,2.1,0.1,4.2-0.2,6.3c-0.2,0.2-0.5,0.3-0.8,0.3c-3.5,0.2-6.8-0.2-9.4-2.9
			c-0.6-0.6-1.4-1.1-2.2-1.4C47.7,26.8,47.3,26.7,47.2,26.3"/>
		<path class="st0" d="M36.4,38.1c-0.6,0.8-1.5,1.2-2.4,1.7c-3.9,2.4-8.2,3.9-12.8,4.6c-2.2-1.9-4-4.2-5.2-6.9
			c0.3-0.4,0.8-0.4,1.3-0.4c5.4,0,10.8,0,16.1,0C34.5,37.1,35.6,37.1,36.4,38.1"/>
		<path class="st1" d="M47.2,26.3c1.6,0.5,2.9,1.4,4.1,2.6c1.6,1.4,3.5,2,5.6,2.1c1.2,0.1,2.4,0,3.6,0c0,0.5-0.1,1.1-0.4,1.6
			c-0.2,0.2-0.5,0.3-0.8,0.3c-3.8,0.3-7.3-0.4-10.1-3.2c-0.6-0.6-1.2-1-2-1.2c-0.4-0.1-0.8-0.2-1-0.6c-2.1-0.5-3.9,0-5.4,1.4
			c-2.4,2.3-5.1,3.4-8.5,3.3c-6-0.1-12.1,0-18.1,0c-0.3-0.5-0.4-1-0.4-1.6c6.4,0,12.8,0,19.2,0c2.2,0,4.3-0.7,5.9-2.3
			C41.3,26.4,44,25.6,47.2,26.3"/>
		<path class="st1" d="M60.7,24.7c-2.4-0.5-4.5-1.7-6.4-3.2c-1.2-1-2.6-1.7-4.2-2.1c-4.8-1.6-9.1-0.7-13.1,2.2
			c-2.6,1.9-5.4,3.3-8.7,3.4c-0.2,0.1-0.5,0.1-0.8,0.1c-4.3,0-8.5,0-12.8,0c-0.5,0-0.9,0-1.2-0.5c0-0.5-0.1-1.1,0.2-1.6
			c0.1,0.5,0.5,0.4,0.9,0.4c4.5,0,9,0.1,13.5,0c2.9-0.1,5.4-1.3,7.6-3c4.2-3.2,8.9-4.2,14-2.9c0.2,0,0.3,0.1,0.5,0.1
			c1.6,0,2.9,0.8,4.2,1.7c1.8,1.2,3.6,2.5,5.6,3.3c0.2,0.1,0.3,0.2,0.4,0.3C60.7,23.5,60.7,24.1,60.7,24.7"/>
		<path class="st0" d="M46.2,27.8c1.1,0.1,2.2,0.5,3,1.3c2.4,2.5,5.4,3.6,8.8,3.4c0.7,0,1.4,0,2.1,0c-0.1,1.2-0.6,2.2-1,3.3
			c-0.4,0.4-0.9,0.4-1.4,0.3c-3.1-0.2-5.7,0.9-8.1,3c-2.9,2.6-6.6,2.5-9.4-0.2c-0.5-0.4-0.9-0.8-1.4-1.2c-0.3-0.2-0.7-0.3-0.6-0.8
			c0.5-0.7,1.3-1.2,2-1.8c0.5,0,0.6,0.5,0.7,0.8c1.1,2,2.6,2.8,4.8,2.6c1.8-0.2,3.3-1.5,3.8-3.5c0.6-2.1-0.7-4.5-2.8-5.3
			c-0.4-0.2-1-0.1-1.2-0.7C45.7,28.8,45.9,28.3,46.2,27.8"/>
		<path class="st1" d="M38.2,37c1,0.7,1.9,1.5,2.8,2.2c2.6,2.1,6.1,2,8.5-0.4c2.3-2.2,5-3.2,8.2-3c0.5,0,0.9,0,1.4,0
			c-0.2,0.6-0.4,1.1-0.8,1.6c-2.3-0.1-4.4,0.2-6.3,1.5c-0.4,0.3-0.7,0.6-1,0.9c-3.5,3.4-8.4,3.4-11.9,0c-0.8-0.8-1.7-1.3-2.7-1.8
			c-1.3-0.5-2.6-0.6-4-0.6c-5.4,0-10.9,0-16.3,0c-0.3-0.5-0.6-1-0.8-1.6c5.2,0,10.5,0,15.7,0C33.5,35.8,35.9,35.9,38.2,37"/>
		<path class="st1" d="M19,11.8c1.2,0.1,2.3-0.4,3.4-0.9c1.8-0.9,3.7-1.7,5.8-1.9c2.3-0.2,4.6,0.1,6.6,1.2c2.9,1.5,5.9,2.2,9.1,2
			c2.6-0.1,5.2,0,7.7,0c1.3-0.6,2.7-0.5,4,0c0.5,0.4,0.9,1,1.2,1.6c-0.1,0.1-0.2,0.2-0.3,0.2c-1.7,0.2-3.5,0.5-5.2-0.2
			c-2.9,0-5.7-0.1-8.6,0c-2.8,0.1-5.3-0.5-7.8-1.8c-1.7-1-3.6-1.4-5.6-1.4c-2,0-3.8,0.6-5.6,1.5c-1.9,1-4,1.6-6.2,1.6
			C17.9,13,18.4,12.3,19,11.8"/>
		<path class="st0" d="M51.3,13.8c1.8,0,3.7,0,5.5,0c2,2.8,3.2,5.9,3.7,9.2c-1.8-0.3-3.3-1.2-4.7-2.3c-1.7-1.3-3.5-2.3-5.5-3
			c0.8-0.4,0.6-1.2,0.8-1.9C51.3,15.2,51.5,14.5,51.3,13.8"/>
		<path class="st1" d="M30.1,49.4c0.2,0,0.3-0.2,0.2-0.4c-1-3,0.1-4.9,3.3-5.6c1.8-0.4,3.6-0.2,5.3,0.6c2.4,1.1,3.6,4.2,0.5,6.4
			C36.2,50.8,33.1,50.4,30.1,49.4"/>
		<path class="st0" d="M55.7,12.2c-1.3,0-2.7,0-4,0c0.1-1.2,0.1-2.5,0.2-3.7C53.4,9.5,54.6,10.7,55.7,12.2"/>
		<path class="st1" d="M13.7,24.7c0.4,0.2,0.9,0.2,1.3,0.2c4.1,0,8.2,0,12.2,0c0.4,0,0.8-0.1,1.1,0.2c0,0,0,0,0,0
			c-0.4,0.3-0.8,0.2-1.2,0.2c-4.4,0-8.8,0-13.1,0c-0.1,0-0.2,0.1-0.3,0.2l-0.2,0.6C13.4,25.6,13.4,25.2,13.7,24.7"/>
		<path class="st1" d="M25.8,16.2c0-1.8,1.4-3.3,3.2-3.2c1.8,0,3.3,1.6,3.3,3.3c0,1.8-1.5,3.1-3.3,3.1C27,19.4,25.8,18.1,25.8,16.2"
			/>
		<path class="st0" d="M13.7,25.5c0-0.1,0-0.1,0-0.2c0.2-0.1,0.4-0.1,0.6-0.1c4.5,0,9,0,13.5,0c0.2,0,0.4,0,0.6,0.1
			c-0.2,0.4-0.5,0.2-0.8,0.2C22.9,25.5,18.3,25.5,13.7,25.5"/>
		<path class="st0" d="M28.4,25.3c-4.9,0-9.8,0-14.7,0c0.2-0.3,0.6-0.2,0.9-0.2c4.6,0,9.2,0,13.8,0C28.4,25.2,28.4,25.2,28.4,25.3"
			/>
		<path class="st1" d="M45.4,29.2c1.8,0.4,3.3,1.3,4.1,3.1c1.3,3-1,6.6-4.3,6.7c-2.3,0.1-3.8-1-4.8-3.1c-0.1-0.2-0.2-0.5-0.3-0.7
			c-0.1-1.6,0-3.1,1.2-4.3c0.8-0.8,1.7-1.5,2.9-1.6C44.6,29.2,45.1,29.5,45.4,29.2L45.4,29.2z"/>
		<path class="st1" d="M45.4,29.2c-0.4,0.3-0.8,0.2-1.2,0.2C44.6,29.1,45,29.3,45.4,29.2"/>
		<path class="st0" d="M35.6,49.6c-1.4,0-2.6-0.1-3.5-1.1c-0.8-0.8-0.9-1.7,0-2.6c1.4-1.3,3.1-1.1,4.8-1c0.5,0,1,0.2,1.5,0.5
			c0.7,0.5,1.3,1,1.2,1.9c-0.1,0.9-0.7,1.4-1.4,1.7C37.3,49.5,36.4,49.7,35.6,49.6"/>
		<path class="st0" d="M30.5,16.3c0,0.9-0.7,1.6-1.6,1.6c-0.9,0-1.6-0.7-1.6-1.6c0-0.8,0.8-1.6,1.6-1.6
			C29.9,14.6,30.5,15.3,30.5,16.3"/>
		<path class="st0" d="M43.8,31.2c1.6-0.5,3,0,3.9,1.3c0.7,1.1,0.6,2.7-0.2,3.7c-1,1.2-2.4,1.6-3.8,1c-1.3-0.5-2.6-2.3-1.9-3.9
			C42.5,32.5,43,31.7,43.8,31.2"/>
		<path class="st0" d="M43.8,31.2c-0.6,0.7-1.1,1.6-2,2.2C42.2,32.3,42.8,31.5,43.8,31.2"/>
		<path class="st2" d="M47.7,28.9c0,0-1.6-1.3-0.7-4.1c0-0.1-0.2-1.3,0.5-1.6c0,0,0-1.6,1-1.5c0,0,0.2-0.6,1.1-0.7
			c0,0,0.5-0.2,0.2,3.8L47.7,28.9z"/>
		<path class="st3" d="M39.1,53.8c0,0-0.3-11.6-0.6-13.5c0,0-0.9-6.6,4.5-10.3c0,0,1.2-0.9,2.2-3.6c0,0,0.8-2.2,2.2-1.6
			c0,0,1.3,0.8-0.4,3.2c0,0-2.2,3.4-1.9,4.5c0,0,1.3-1.9,2.5-2.8c0,0,0.1-1.9,0.8-2.9c0,0-0.5-1.2-0.3-2.3c0,0-0.7-1.8,0-2.9
			c0,0,1-0.8,2.4,5.4c0,0,0.1,1.2-0.9,4.1c0,0,0.4,3-1.9,3.8c0,0-4.6,3.2-4.7,5.1c0,0,2.6,12.2,3.2,13.8L39.1,53.8z"/>
		<path class="st4" d="M45.1,33c0,0,0.7-1.3,1-1.8c0,0-0.7,1-0.7-0.1c0,0,0.9-1.7,1.5-2.8c0,0-1.4,2.3-1.9,2.5
			C44.9,30.8,45.2,32.1,45.1,33"/>
		<path class="st4" d="M45.9,31.5c0,0,0.9-1.3,1.6-1.7c0,0,0.2-2.4,0.9-3c0,0-0.6-1.2-0.3-2.3c0,0-0.9-1.8,0-2.9
			c0,0-0.4,2.4,0.2,2.6c0,0,0,2.1,0.4,2.4c0,0-0.9,1.8-0.7,3.2c0,0-2.7,2.5-3,3.1L45.9,31.5z"/>
		<path class="st4" d="M49.7,31.1c0,0,0.1,1.4-0.3,2.3c0,0-0.2,1.1-1.6,1.6l-1.4,1l2.2-1.9C48.5,34.1,49.6,33,49.7,31.1"/>
		<path class="st5" d="M48.4,21.6c0,0,1,0.8,1.4,2.7l-1.1-3.1C48.8,21.2,48.6,21.3,48.4,21.6"/>
		<path class="st5" d="M47.9,27.9L47.6,27c0,0,0,1,0.1,1.5L47.9,27.9z"/>
		<polygon class="st5" points="39.1,53.8 40.3,53.8 38.6,42.3 		"/>
		<path class="st6" d="M43,29.9c0,0-6.4,3.6-4.4,12.4c0,0-0.5-5.5,2.1-8.5c0,0,4.2-3.6,4.1-6.5C44.8,27.3,43.5,29.4,43,29.9"/>
		<path class="st7" d="M52.1,10c-1.8,0-4.6,0.7-7.8,2.1l6.4,5.9C51.8,14.7,52.2,11.7,52.1,10"/>
		<path class="st8" d="M27,42.3c0.8-0.4,6.2-3.6,11.3-9.1c4.2-4.6,4-9.6,3.5-12.3c-2.8-0.2-7.8,0-12,4.5c-5.1,5.5-7.8,11.2-8.2,12
			L27,42.3z"/>
		<path class="st9" d="M33.2,19.8c-7.5,8.2-10.3,14.6-10.9,15.8l6.7,6.2c1.1-0.7,7.3-4,14.9-12.1c3.3-3.6,5.5-7.9,6.8-11.6l-6.4-5.9
			C40.6,13.6,36.6,16.2,33.2,19.8"/>
		<path class="st10" d="M50.7,18l-3.2-3L25.7,38.7l3.4,3.1c1.1-0.7,7.3-4,14.9-12.1C47.3,26,49.4,21.7,50.7,18"/>
		<path class="st11" d="M41.5,21.5c-1.3-1.2-3.3-1.1-4.4,0.2C35.9,23,36,25,37.2,26.1c1.3,1.2,3.3,1.1,4.4-0.2
			C42.8,24.7,42.8,22.7,41.5,21.5"/>
		<path class="st8" d="M40.5,27.4c2-0.6,3-2.7,2.4-4.7c-0.6-2-2.7-3-4.7-2.4c-2,0.6-3,2.7-2.4,4.7C36.4,26.9,38.5,28,40.5,27.4
			 M40.2,26.6c-1.5,0.5-3.2-0.3-3.6-1.9c-0.5-1.5,0.4-3.2,1.9-3.6c1.5-0.5,3.2,0.3,3.6,1.9C42.6,24.5,41.8,26.1,40.2,26.6"/>
	</g>
	<g>
		<defs>
			<path id="SVGID_3_" d="M13.5,26.9c0,13.1,10.6,23.7,23.7,23.7S60.9,40,60.9,26.9S50.3,3.2,37.2,3.2S13.5,13.8,13.5,26.9"/>
		</defs>
		<clipPath id="SVGID_4_">
			<use xlink:href="#SVGID_3_"  style="overflow:visible;"/>
		</clipPath>
		<g class="st12">
			<g>
				<defs>
					<rect id="SVGID_5_" x="36.2" y="20.7" width="6.3" height="6.3"/>
				</defs>
				<clipPath id="SVGID_6_">
					<use xlink:href="#SVGID_5_"  style="overflow:visible;"/>
				</clipPath>
				<path class="st13" d="M40.3,26.9c1.7-0.5,2.6-2.3,2-4c-0.5-1.7-2.3-2.6-4-2c-1.7,0.5-2.6,2.3-2,4C36.9,26.5,38.7,27.4,40.3,26.9
					"/>
			</g>
		</g>
		<g class="st14">
			<g>
				<defs>
					<rect id="SVGID_7_" x="37" y="21.3" width="4.9" height="2.1"/>
				</defs>
				<clipPath id="SVGID_8_">
					<use xlink:href="#SVGID_7_"  style="overflow:visible;"/>
				</clipPath>
				<path class="st15" d="M37,22.8c0.4-1,1.5-1.6,2.7-1.5c1.1,0.1,2,1,2.2,2.1c0,0-1.5-0.6-2.5-0.7C38.4,22.6,37,22.8,37,22.8"/>
			</g>
		</g>
		<path class="st16" d="M47.5,15l3.2,3c1.1-3.3,1.5-6.2,1.4-8c0,0,0,0,0,0L47.5,15z"/>
		<path class="st17" d="M26.1,34.9c2.3-2.5,2.4-6.2,0.2-8.2c-2.2-2-5.9-1.7-8.2,0.8c-2.3,2.5-2.4,6.2-0.2,8.2
			C20.2,37.7,23.8,37.4,26.1,34.9"/>
		<path class="st17" d="M37.2,45.1c2.3-2.5,2.4-6.2,0.2-8.2c-2.2-2-5.9-1.7-8.2,0.8c-2.3,2.5-2.4,6.2-0.2,8.2
			C31.3,48,34.9,47.6,37.2,45.1"/>
	</g>
	<g>
		<defs>
			
				<rect id="SVGID_9_" x="18" y="30.4" transform="matrix(0.6779 -0.7352 0.7352 0.6779 -16.5245 28.4291)" width="12.3" height="5.4"/>
		</defs>
		<clipPath id="SVGID_10_">
			<use xlink:href="#SVGID_9_"  style="overflow:visible;"/>
		</clipPath>
		<path class="st18" d="M18.2,27.6c-2.3,2.5-2.4,6.2-0.2,8.2c2.2,2,5.9,1.7,8.2-0.8c2.3-2.5,2.4-6.2,0.2-8.2
			C24.2,24.7,20.5,25.1,18.2,27.6"/>
	</g>
	<g>
		<defs>
			
				<rect id="SVGID_11_" x="29.1" y="40.5" transform="matrix(0.6779 -0.7352 0.7352 0.6779 -20.4488 39.8155)" width="12.3" height="5.4"/>
		</defs>
		<clipPath id="SVGID_12_">
			<use xlink:href="#SVGID_11_"  style="overflow:visible;"/>
		</clipPath>
		<path class="st19" d="M29.2,37.7c-2.3,2.5-2.4,6.2-0.2,8.2c2.2,2,5.9,1.7,8.2-0.8c2.3-2.5,2.4-6.2,0.2-8.2
			C35.2,34.9,31.5,35.2,29.2,37.7"/>
	</g>
	<g>
		<defs>
			<path id="SVGID_13_" d="M13.5,26.9c0,13.1,10.6,23.7,23.7,23.7S60.9,40,60.9,26.9S50.3,3.2,37.2,3.2S13.5,13.8,13.5,26.9"/>
		</defs>
		<clipPath id="SVGID_14_">
			<use xlink:href="#SVGID_13_"  style="overflow:visible;"/>
		</clipPath>
		<polygon class="st20" points="33,47.2 27.4,42.1 26.7,43.8 31.5,48.2 		"/>
		<polygon class="st20" points="21.9,37 16.3,31.9 15.6,33.5 20.4,38 		"/>
		<path class="st21" d="M47.5,24.8c-0.2,0-0.3-0.1-0.4-0.1c0,0,0,0.1,0,0.1c-0.5,1.6-0.2,2.7,0.1,3.4C47.6,27.3,48.4,25.3,47.5,24.8
			"/>
		<path class="st22" d="M43.4,39.2c0-0.1,0-0.1-0.1-0.2c-0.1-0.9-0.1-1.8,0.1-2.7c0,0,0-0.1,0-0.1c0.1-1,0.3-2.2,1.1-2.9
			c0-0.1,0-0.2,0.1-0.3c0.2-0.5,0.4-1,0.7-1.5C45.7,30.1,47,28,47,28c0.2-0.3,0.4-0.6,0.5-0.9c0.2-0.5,0.3-1,0.3-1.5
			c-0.1-0.6-0.5-0.8-0.5-0.8c-1.5-0.7-2.2,1.6-2.2,1.6C44.2,29,43,30,43,30c-5.4,3.6-4.5,10.3-4.5,10.3c0.3,1.9,0.6,13.5,0.6,13.5
			l7.3,0C45.7,52.1,43.1,40,43.1,40C43.1,39.7,43.2,39.5,43.4,39.2"/>
		<path class="st23" d="M45.4,31.2c0,0,0-0.1,0-0.1c0,0,0.9-1.7,1.5-2.8c0,0-1.4,2.3-1.9,2.5c0,0,0.1,0.5,0.2,1
			C45.2,31.6,45.3,31.4,45.4,31.2"/>
		<polygon class="st24" points="39.1,53.8 40.3,53.8 38.6,42.3 		"/>
		<path class="st25" d="M43.1,29.9c0,0-6.4,3.6-4.4,12.4c0,0-0.5-5.5,2.1-8.5c0,0,4.2-3.6,4.1-6.5C44.8,27.3,43.6,29.4,43.1,29.9"/>
	</g>
</g>
</svg>
