<?xml version="1.0" encoding="utf-8"?>
<!-- Generator: Adobe Illustrator 22.1.0, SVG Export Plug-In . SVG Version: 6.00 Build 0)  -->
<svg version="1.1" id="Layer_1" xmlns="http://www.w3.org/2000/svg" xmlns:xlink="http://www.w3.org/1999/xlink" x="0px" y="0px"
	 viewBox="0 0 69.7 49.5" style="enable-background:new 0 0 69.7 49.5;" xml:space="preserve">
<style type="text/css">
	.st0{clip-path:url(#SVGID_2_);fill:#E2819A;}
	.st1{clip-path:url(#SVGID_2_);fill:#E07386;}
	.st2{clip-path:url(#SVGID_2_);fill:#DD9968;}
	.st3{clip-path:url(#SVGID_2_);fill:#E2A979;}
	.st4{clip-path:url(#SVGID_2_);fill:#C9946C;}
	.st5{clip-path:url(#SVGID_2_);fill:#C5895E;}
	.st6{clip-path:url(#SVGID_2_);fill:#F1B885;}
	.st7{clip-path:url(#SVGID_2_);fill:#B85436;}
	.st8{clip-path:url(#SVGID_2_);fill:#232735;}
	.st9{clip-path:url(#SVGID_2_);fill:#FFFFFF;}
	.st10{clip-path:url(#SVGID_2_);fill:#EAEAE9;}
	.st11{clip-path:url(#SVGID_2_);fill:#A1D5E7;}
	.st12{opacity:0.3;clip-path:url(#SVGID_4_);}
	.st13{clip-path:url(#SVGID_6_);fill:#DFDFDF;}
	.st14{opacity:0.5;clip-path:url(#SVGID_4_);}
	.st15{clip-path:url(#SVGID_8_);fill:#FFFFFF;}
	.st16{clip-path:url(#SVGID_4_);fill:#9B392B;}
	.st17{clip-path:url(#SVGID_4_);fill:#D23732;}
	.st18{clip-path:url(#SVGID_10_);fill:#9B392B;}
	.st19{clip-path:url(#SVGID_12_);fill:#9B392B;}
	.st20{clip-path:url(#SVGID_14_);fill:#232735;}
	.st21{clip-path:url(#SVGID_14_);fill:#DD9968;}
	.st22{clip-path:url(#SVGID_14_);fill:#E2A979;}
	.st23{clip-path:url(#SVGID_14_);fill:#C9946C;}
	.st24{clip-path:url(#SVGID_14_);fill:#C5895E;}
	.st25{clip-path:url(#SVGID_14_);fill:#F1B885;}
</style>
<title>Asset 1</title>
<g>
	<g>
		<defs>
			<path id="SVGID_1_" d="M11.5,24.9c0,13.1,10.6,23.7,23.7,23.7S58.9,38,58.9,24.9S48.3,1.2,35.2,1.2S11.5,11.8,11.5,24.9"/>
		</defs>
		<clipPath id="SVGID_2_">
			<use xlink:href="#SVGID_1_"  style="overflow:visible;"/>
		</clipPath>
		<path class="st0" d="M11.8,21.1c0.5-3.4,1.7-6.6,3.7-9.4c0.4-0.2,0.8-0.4,1.3-0.5c1.8-0.2,3.5-0.8,5.1-1.6c3.7-1.9,7.4-1.9,11,0
			c2.6,1.3,5.2,2,8.1,1.8c2.3-0.1,4.6,0,6.9,0c0.5,0,1,0,1.4,0.2c0.2,0.2,0.4,0.4,0.3,0.7c0,1.1-0.2,2.1-0.6,3.1
			c-0.1,0.3-0.4,0.5-0.7,0.5c-1.4,0-2.7-0.5-4.2-0.5c-3.7-0.1-7.1,1-10,3.3c-2.1,1.6-4.4,2.7-7.1,3.1c-0.4,0.1-0.8,0.1-1.2,0.1
			c-4.2,0-8.5,0-12.7,0c-0.3,0-0.6,0-0.9-0.1C11.9,21.7,11.7,21.5,11.8,21.1"/>
		<path class="st0" d="M11.9,29c-0.3-1.6-0.5-3.2-0.4-4.9c0.1-0.2,0-0.6,0.3-0.8c0.4-0.2,0.8-0.1,1.3-0.1c3.9,0,7.9,0,11.8,0
			c0.4,0,0.8,0,1.2-0.1c0,0,0.1-0.1,0.1-0.1c0.1-0.1,0.2-0.1,0.3-0.1c3.4-0.5,6.3-2,9.1-4c3.4-2.4,7.2-3.1,11.3-2.2
			c0.5,0.1,1,0.2,1.4,0.7c0.1,0.3,0.1,0.6,0,0.9c-0.6,2-1.4,3.9-2.5,5.6c-0.2,0.3-0.4,0.5-0.7,0.6c-0.6,0.1-1.2,0-1.9,0
			c-2.1-0.1-4,0.7-5.5,2.1c-2,1.9-4.4,2.8-7.2,2.8c-5.6,0-11.3,0-16.9,0C13,29.3,12.4,29.5,11.9,29"/>
		<path class="st0" d="M17,9.8c5.3-6.2,12-9.1,20.2-8.5c4.8,0.3,9.1,2,12.8,5.1c0.7,1.3,0.2,2.5-0.1,3.7c-0.4,0.4-0.9,0.4-1.4,0.4
			c-3,0-6.1,0-9.1,0c-2.1,0-4-0.7-5.8-1.6c-1.4-0.7-2.9-1.2-4.4-1.5c-2.9-0.4-5.5,0.2-8,1.5c-1,0.5-2,1-3.1,1.2
			C17.7,10.1,17.2,10.4,17,9.8"/>
		<path class="st0" d="M28.1,47.4c-3.4-1-6.3-2.7-8.8-5.1c0.2-0.3,0.5-0.4,0.8-0.4c5.1-1,9.7-3,14-5.8c0.1-0.1,0.2-0.1,0.3-0.1
			c1.3,0.1,2.2,1.1,3.1,1.9c2.3,2,4.8,2.7,7.8,1.9c1.4-0.4,2.5-1.2,3.5-2.2c1.8-1.7,4-2.4,6.4-2.4c0.4,0,0.8,0,1.1,0.3
			c-3.4,6.7-8.8,10.8-16,12.5c-1,0.2-2,0.5-3,0.4c-0.1-0.5,0.3-0.7,0.6-0.9c1.5-1.6,1.2-3.7-0.6-4.9c-2.2-1.4-4.6-1.5-7-0.4
			c-1.4,0.6-2.9,2.4-1.9,4.4C28.8,47.2,28.7,47.3,28.1,47.4"/>
		<path class="st0" d="M13.3,33.9c-0.4-1.1-0.9-2.1-1-3.3c0.5-0.5,1.1-0.4,1.7-0.4c5.5,0,11-0.1,16.4,0c3.1,0,5.8-0.9,8-3
			c1.3-1.2,2.8-1.8,4.5-1.9c0.5,0,0.9,0,1.3,0.3c0.4,0.8-0.2,1.2-0.5,1.7c-0.1,0.1-0.2,0.1-0.3,0.2c-0.4,0.1-0.8,0.1-1.1,0.2
			c-2.4,0.7-3.6,2.2-3.8,4.7c0,0.3,0,0.7-0.1,1c-0.7,0.8-1.4,1.6-2.5,1.9c-0.1,0-0.1,0-0.2,0c-2.3-1.1-4.8-1-7.3-0.9
			c-4.5,0-8.9,0-13.4,0C14.4,34.3,13.8,34.3,13.3,33.9"/>
		<path class="st0" d="M45.2,24.3c1.2-2.2,2.3-4.4,2.9-6.9c0.4-0.3,0.8-0.1,1.2,0.1c1.2,0.5,2.3,1.1,3.3,1.9
			c1.6,1.3,3.3,2.3,5.3,2.8c0.3,0.1,0.6,0.3,0.8,0.5c0.3,2.1,0.1,4.2-0.2,6.3c-0.2,0.2-0.5,0.3-0.8,0.3c-3.5,0.2-6.8-0.2-9.4-2.9
			c-0.6-0.6-1.4-1.1-2.2-1.4C45.7,24.8,45.3,24.7,45.2,24.3"/>
		<path class="st0" d="M34.4,36.1c-0.6,0.8-1.5,1.2-2.4,1.7c-3.9,2.4-8.2,3.9-12.8,4.6c-2.2-1.9-4-4.2-5.2-6.9
			c0.3-0.4,0.8-0.4,1.3-0.4c5.4,0,10.8,0,16.1,0C32.5,35.1,33.6,35.1,34.4,36.1"/>
		<path class="st1" d="M45.2,24.3c1.6,0.5,2.9,1.4,4.1,2.6c1.6,1.4,3.5,2,5.6,2.1c1.2,0.1,2.4,0,3.6,0c0,0.5-0.1,1.1-0.4,1.6
			c-0.2,0.2-0.5,0.3-0.8,0.3c-3.8,0.3-7.3-0.4-10.1-3.2c-0.6-0.6-1.2-1-2-1.2c-0.4-0.1-0.8-0.2-1-0.6c-2.1-0.5-3.9,0-5.4,1.4
			c-2.4,2.3-5.1,3.4-8.5,3.3c-6-0.1-12.1,0-18.1,0c-0.3-0.5-0.4-1-0.4-1.6c6.4,0,12.8,0,19.2,0c2.2,0,4.3-0.7,5.9-2.3
			C39.3,24.4,42,23.6,45.2,24.3"/>
		<path class="st1" d="M58.7,22.7c-2.4-0.5-4.5-1.7-6.4-3.2c-1.2-1-2.6-1.7-4.2-2.1c-4.8-1.6-9.1-0.7-13.1,2.2
			c-2.6,1.9-5.4,3.3-8.7,3.4c-0.2,0.1-0.5,0.1-0.8,0.1c-4.3,0-8.5,0-12.8,0c-0.5,0-0.9,0-1.2-0.5c0-0.5-0.1-1.1,0.2-1.6
			c0.1,0.5,0.5,0.4,0.9,0.4c4.5,0,9,0.1,13.5,0c2.9-0.1,5.4-1.3,7.6-3c4.2-3.2,8.9-4.2,14-2.9c0.2,0,0.3,0.1,0.5,0.1
			c1.6,0,2.9,0.8,4.2,1.7c1.8,1.2,3.6,2.5,5.6,3.3c0.2,0.1,0.3,0.2,0.4,0.3C58.7,21.5,58.7,22.1,58.7,22.7"/>
		<path class="st0" d="M44.2,25.8c1.1,0.1,2.2,0.5,3,1.3c2.4,2.5,5.4,3.6,8.8,3.4c0.7,0,1.4,0,2.1,0c-0.1,1.2-0.6,2.2-1,3.3
			c-0.4,0.4-0.9,0.4-1.4,0.3c-3.1-0.2-5.7,0.9-8.1,3c-2.9,2.6-6.6,2.5-9.4-0.2c-0.5-0.4-0.9-0.8-1.4-1.2c-0.3-0.2-0.7-0.3-0.6-0.8
			c0.5-0.7,1.3-1.2,2-1.8c0.5,0,0.6,0.5,0.7,0.8c1.1,2,2.6,2.8,4.8,2.6c1.8-0.2,3.3-1.5,3.8-3.5c0.6-2.1-0.7-4.5-2.8-5.3
			c-0.4-0.2-1-0.1-1.2-0.7C43.7,26.8,43.9,26.3,44.2,25.8"/>
		<path class="st1" d="M36.2,35c1,0.7,1.9,1.5,2.8,2.2c2.6,2.1,6.1,2,8.5-0.4c2.3-2.2,5-3.2,8.2-3c0.5,0,0.9,0,1.4,0
			c-0.2,0.6-0.4,1.1-0.8,1.6c-2.3-0.1-4.4,0.2-6.3,1.5c-0.4,0.3-0.7,0.6-1,0.9c-3.5,3.4-8.4,3.4-11.9,0c-0.8-0.8-1.7-1.3-2.7-1.8
			c-1.3-0.5-2.6-0.6-4-0.6c-5.4,0-10.9,0-16.3,0c-0.3-0.5-0.6-1-0.8-1.6c5.2,0,10.5,0,15.7,0C31.5,33.8,33.9,33.9,36.2,35"/>
		<path class="st1" d="M17,9.8c1.2,0.1,2.3-0.4,3.4-0.9c1.8-0.9,3.7-1.7,5.8-1.9c2.3-0.2,4.6,0.1,6.6,1.2c2.9,1.5,5.9,2.2,9.1,2
			c2.6-0.1,5.2,0,7.7,0c1.3-0.6,2.7-0.5,4,0c0.5,0.4,0.9,1,1.2,1.6c-0.1,0.1-0.2,0.2-0.3,0.2c-1.7,0.2-3.5,0.5-5.2-0.2
			c-2.9,0-5.7-0.1-8.6,0c-2.8,0.1-5.3-0.5-7.8-1.8c-1.7-1-3.6-1.4-5.6-1.4c-2,0-3.8,0.6-5.6,1.5c-1.9,1-4,1.6-6.2,1.6
			C15.9,11,16.4,10.3,17,9.8"/>
		<path class="st0" d="M49.3,11.8c1.8,0,3.7,0,5.5,0c2,2.8,3.2,5.9,3.7,9.2c-1.8-0.3-3.3-1.2-4.7-2.3c-1.7-1.3-3.5-2.3-5.5-3
			c0.8-0.4,0.6-1.2,0.8-1.9C49.3,13.2,49.5,12.5,49.3,11.8"/>
		<path class="st1" d="M28.1,47.4c0.2,0,0.3-0.2,0.2-0.4c-1-3,0.1-4.9,3.3-5.6c1.8-0.4,3.6-0.2,5.3,0.6c2.4,1.1,3.6,4.2,0.5,6.4
			C34.2,48.8,31.1,48.4,28.1,47.4"/>
		<path class="st0" d="M53.7,10.2c-1.3,0-2.7,0-4,0c0.1-1.2,0.1-2.5,0.2-3.7C51.4,7.5,52.6,8.7,53.7,10.2"/>
		<path class="st1" d="M11.7,22.7c0.4,0.2,0.9,0.2,1.3,0.2c4.1,0,8.2,0,12.2,0c0.4,0,0.8-0.1,1.1,0.2c0,0,0,0,0,0
			c-0.4,0.3-0.8,0.2-1.2,0.2c-4.4,0-8.8,0-13.1,0c-0.1,0-0.2,0.1-0.3,0.2l-0.2,0.6C11.4,23.6,11.4,23.2,11.7,22.7"/>
		<path class="st1" d="M23.8,14.2c0-1.8,1.4-3.3,3.2-3.2c1.8,0,3.3,1.6,3.3,3.3c0,1.8-1.5,3.1-3.3,3.1C25,17.4,23.8,16.1,23.8,14.2"
			/>
		<path class="st0" d="M11.7,23.5c0-0.1,0-0.1,0-0.2c0.2-0.1,0.4-0.1,0.6-0.1c4.5,0,9,0,13.5,0c0.2,0,0.4,0,0.6,0.1
			c-0.2,0.4-0.5,0.2-0.8,0.2C20.9,23.5,16.3,23.5,11.7,23.5"/>
		<path class="st0" d="M26.4,23.3c-4.9,0-9.8,0-14.7,0c0.2-0.3,0.6-0.2,0.9-0.2c4.6,0,9.2,0,13.8,0C26.4,23.2,26.4,23.2,26.4,23.3"
			/>
		<path class="st1" d="M43.4,27.2c1.8,0.4,3.3,1.3,4.1,3.1c1.3,3-1,6.6-4.3,6.7c-2.3,0.1-3.8-1-4.8-3.1c-0.1-0.2-0.2-0.5-0.3-0.7
			c-0.1-1.6,0-3.1,1.2-4.3c0.8-0.8,1.7-1.5,2.9-1.6C42.6,27.2,43.1,27.5,43.4,27.2L43.4,27.2z"/>
		<path class="st1" d="M43.4,27.2c-0.4,0.3-0.8,0.2-1.2,0.2C42.6,27.1,43,27.3,43.4,27.2"/>
		<path class="st0" d="M33.6,47.6c-1.4,0-2.6-0.1-3.5-1.1c-0.8-0.8-0.9-1.7,0-2.6c1.4-1.3,3.1-1.1,4.8-1c0.5,0,1,0.2,1.5,0.5
			c0.7,0.5,1.3,1,1.2,1.9c-0.1,0.9-0.7,1.4-1.4,1.7C35.3,47.5,34.4,47.7,33.6,47.6"/>
		<path class="st0" d="M28.5,14.3c0,0.9-0.7,1.6-1.6,1.6c-0.9,0-1.6-0.7-1.6-1.6c0-0.8,0.8-1.6,1.6-1.6
			C27.9,12.6,28.5,13.3,28.5,14.3"/>
		<path class="st0" d="M41.8,29.2c1.6-0.5,3,0,3.9,1.3c0.7,1.1,0.6,2.7-0.2,3.7c-1,1.2-2.4,1.6-3.8,1c-1.3-0.5-2.6-2.3-1.9-3.9
			C40.5,30.5,41,29.7,41.8,29.2"/>
		<path class="st0" d="M41.8,29.2c-0.6,0.7-1.1,1.6-2,2.2C40.2,30.3,40.8,29.5,41.8,29.2"/>
		<path class="st2" d="M45.7,26.9c0,0-1.6-1.3-0.7-4.1c0-0.1-0.2-1.3,0.5-1.6c0,0,0-1.6,1-1.5c0,0,0.2-0.6,1.1-0.7
			c0,0,0.5-0.2,0.2,3.8L45.7,26.9z"/>
		<path class="st3" d="M37.1,51.8c0,0-0.3-11.6-0.6-13.5c0,0-0.9-6.6,4.5-10.3c0,0,1.2-0.9,2.2-3.6c0,0,0.8-2.2,2.2-1.6
			c0,0,1.3,0.8-0.4,3.2c0,0-2.2,3.4-1.9,4.5c0,0,1.3-1.9,2.5-2.8c0,0,0.1-1.9,0.8-2.9c0,0-0.5-1.2-0.3-2.3c0,0-0.7-1.8,0-2.9
			c0,0,1-0.8,2.4,5.4c0,0,0.1,1.2-0.9,4.1c0,0,0.4,3-1.9,3.8c0,0-4.6,3.2-4.7,5.1c0,0,2.6,12.2,3.2,13.8L37.1,51.8z"/>
		<path class="st4" d="M43.1,31c0,0,0.7-1.3,1-1.8c0,0-0.7,1-0.7-0.1c0,0,0.9-1.7,1.5-2.8c0,0-1.4,2.3-1.9,2.5
			C42.9,28.8,43.2,30.1,43.1,31"/>
		<path class="st4" d="M43.9,29.5c0,0,0.9-1.3,1.6-1.7c0,0,0.2-2.4,0.9-3c0,0-0.6-1.2-0.3-2.3c0,0-0.9-1.8,0-2.9
			c0,0-0.4,2.4,0.2,2.6c0,0,0,2.1,0.4,2.4c0,0-0.9,1.8-0.7,3.2c0,0-2.7,2.5-3,3.1L43.9,29.5z"/>
		<path class="st4" d="M47.7,29.1c0,0,0.1,1.4-0.3,2.3c0,0-0.2,1.1-1.6,1.6l-1.4,1l2.2-1.9C46.5,32.1,47.6,31,47.7,29.1"/>
		<path class="st5" d="M46.4,19.6c0,0,1,0.8,1.4,2.7l-1.1-3.1C46.8,19.2,46.6,19.3,46.4,19.6"/>
		<path class="st5" d="M45.9,25.9L45.6,25c0,0,0,1,0.1,1.5L45.9,25.9z"/>
		<polygon class="st5" points="37.1,51.8 38.3,51.8 36.6,40.3 		"/>
		<path class="st6" d="M41,27.9c0,0-6.4,3.6-4.4,12.4c0,0-0.5-5.5,2.1-8.5c0,0,4.2-3.6,4.1-6.5C42.8,25.3,41.5,27.4,41,27.9"/>
		<path class="st7" d="M50.1,8c-1.8,0-4.6,0.7-7.8,2.1l6.4,5.9C49.8,12.7,50.2,9.7,50.1,8"/>
		<path class="st8" d="M25,40.3c0.8-0.4,6.2-3.6,11.3-9.1c4.2-4.6,4-9.6,3.5-12.3c-2.8-0.2-7.8,0-12,4.5c-5.1,5.5-7.8,11.2-8.2,12
			L25,40.3z"/>
		<path class="st9" d="M31.2,17.8c-7.5,8.2-10.3,14.6-10.9,15.8l6.7,6.2c1.1-0.7,7.3-4,14.9-12.1c3.3-3.6,5.5-7.9,6.8-11.6l-6.4-5.9
			C38.6,11.6,34.6,14.2,31.2,17.8"/>
		<path class="st10" d="M48.7,16l-3.2-3L23.7,36.7l3.4,3.1c1.1-0.7,7.3-4,14.9-12.1C45.3,24,47.4,19.7,48.7,16"/>
		<path class="st11" d="M39.5,19.5c-1.3-1.2-3.3-1.1-4.4,0.2C33.9,21,34,23,35.2,24.1c1.3,1.2,3.3,1.1,4.4-0.2
			C40.8,22.7,40.8,20.7,39.5,19.5"/>
		<path class="st8" d="M38.5,25.4c2-0.6,3-2.7,2.4-4.7c-0.6-2-2.7-3-4.7-2.4c-2,0.6-3,2.7-2.4,4.7C34.4,24.9,36.5,26,38.5,25.4
			 M38.2,24.6c-1.5,0.5-3.2-0.3-3.6-1.9c-0.5-1.5,0.4-3.2,1.9-3.6c1.5-0.5,3.2,0.3,3.6,1.9C40.6,22.5,39.8,24.1,38.2,24.6"/>
	</g>
	<g>
		<defs>
			<path id="SVGID_3_" d="M11.5,24.9c0,13.1,10.6,23.7,23.7,23.7S58.9,38,58.9,24.9S48.3,1.2,35.2,1.2S11.5,11.8,11.5,24.9"/>
		</defs>
		<clipPath id="SVGID_4_">
			<use xlink:href="#SVGID_3_"  style="overflow:visible;"/>
		</clipPath>
		<g class="st12">
			<g>
				<defs>
					<rect id="SVGID_5_" x="34.2" y="18.7" width="6.3" height="6.3"/>
				</defs>
				<clipPath id="SVGID_6_">
					<use xlink:href="#SVGID_5_"  style="overflow:visible;"/>
				</clipPath>
				<path class="st13" d="M38.3,24.9c1.7-0.5,2.6-2.3,2-4c-0.5-1.7-2.3-2.6-4-2c-1.7,0.5-2.6,2.3-2,4C34.9,24.5,36.7,25.4,38.3,24.9
					"/>
			</g>
		</g>
		<g class="st14">
			<g>
				<defs>
					<rect id="SVGID_7_" x="35" y="19.3" width="4.9" height="2.1"/>
				</defs>
				<clipPath id="SVGID_8_">
					<use xlink:href="#SVGID_7_"  style="overflow:visible;"/>
				</clipPath>
				<path class="st15" d="M35,20.8c0.4-1,1.5-1.6,2.7-1.5c1.1,0.1,2,1,2.2,2.1c0,0-1.5-0.6-2.5-0.7C36.4,20.6,35,20.8,35,20.8"/>
			</g>
		</g>
		<path class="st16" d="M45.5,13l3.2,3c1.1-3.3,1.5-6.2,1.4-8c0,0,0,0,0,0L45.5,13z"/>
		<path class="st17" d="M24.1,32.9c2.3-2.5,2.4-6.2,0.2-8.2c-2.2-2-5.9-1.7-8.2,0.8c-2.3,2.5-2.4,6.2-0.2,8.2
			C18.2,35.7,21.8,35.4,24.1,32.9"/>
		<path class="st17" d="M35.2,43.1c2.3-2.5,2.4-6.2,0.2-8.2c-2.2-2-5.9-1.7-8.2,0.8c-2.3,2.5-2.4,6.2-0.2,8.2
			C29.3,46,32.9,45.6,35.2,43.1"/>
	</g>
	<g>
		<defs>
			
				<rect id="SVGID_9_" x="16" y="28.4" transform="matrix(0.6779 -0.7352 0.7352 0.6779 -15.6984 26.3146)" width="12.3" height="5.4"/>
		</defs>
		<clipPath id="SVGID_10_">
			<use xlink:href="#SVGID_9_"  style="overflow:visible;"/>
		</clipPath>
		<path class="st18" d="M16.2,25.6c-2.3,2.5-2.4,6.2-0.2,8.2c2.2,2,5.9,1.7,8.2-0.8c2.3-2.5,2.4-6.2,0.2-8.2
			C22.2,22.7,18.5,23.1,16.2,25.6"/>
	</g>
	<g>
		<defs>
			
				<rect id="SVGID_11_" x="27.1" y="38.5" transform="matrix(0.6779 -0.7352 0.7352 0.6779 -19.6227 37.701)" width="12.3" height="5.4"/>
		</defs>
		<clipPath id="SVGID_12_">
			<use xlink:href="#SVGID_11_"  style="overflow:visible;"/>
		</clipPath>
		<path class="st19" d="M27.2,35.7c-2.3,2.5-2.4,6.2-0.2,8.2c2.2,2,5.9,1.7,8.2-0.8c2.3-2.5,2.4-6.2,0.2-8.2
			C33.2,32.9,29.5,33.2,27.2,35.7"/>
	</g>
	<g>
		<defs>
			<path id="SVGID_13_" d="M11.5,24.9c0,13.1,10.6,23.7,23.7,23.7S58.9,38,58.9,24.9S48.3,1.2,35.2,1.2S11.5,11.8,11.5,24.9"/>
		</defs>
		<clipPath id="SVGID_14_">
			<use xlink:href="#SVGID_13_"  style="overflow:visible;"/>
		</clipPath>
		<polygon class="st20" points="31,45.2 25.4,40.1 24.7,41.8 29.5,46.2 		"/>
		<polygon class="st20" points="19.9,35 14.3,29.9 13.6,31.5 18.4,36 		"/>
		<path class="st21" d="M45.5,22.8c-0.2,0-0.3-0.1-0.4-0.1c0,0,0,0.1,0,0.1c-0.5,1.6-0.2,2.7,0.1,3.4C45.6,25.3,46.4,23.3,45.5,22.8
			"/>
		<path class="st22" d="M41.4,37.2c0-0.1,0-0.1-0.1-0.2c-0.1-0.9-0.1-1.8,0.1-2.7c0,0,0-0.1,0-0.1c0.1-1,0.3-2.2,1.1-2.9
			c0-0.1,0-0.2,0.1-0.3c0.2-0.5,0.4-1,0.7-1.5C43.7,28.1,45,26,45,26c0.2-0.3,0.4-0.6,0.5-0.9c0.2-0.5,0.3-1,0.3-1.5
			c-0.1-0.6-0.5-0.8-0.5-0.8c-1.5-0.7-2.2,1.6-2.2,1.6C42.2,27,41,28,41,28c-5.4,3.6-4.5,10.3-4.5,10.3c0.3,1.9,0.6,13.5,0.6,13.5
			l7.3,0C43.7,50.1,41.1,38,41.1,38C41.1,37.7,41.2,37.5,41.4,37.2"/>
		<path class="st23" d="M43.4,29.2c0,0,0-0.1,0-0.1c0,0,0.9-1.7,1.5-2.8c0,0-1.4,2.3-1.9,2.5c0,0,0.1,0.5,0.2,1
			C43.2,29.6,43.3,29.4,43.4,29.2"/>
		<polygon class="st24" points="37.1,51.8 38.3,51.8 36.6,40.3 		"/>
		<path class="st25" d="M41.1,27.9c0,0-6.4,3.6-4.4,12.4c0,0-0.5-5.5,2.1-8.5c0,0,4.2-3.6,4.1-6.5C42.8,25.3,41.6,27.4,41.1,27.9"/>
	</g>
</g>
</svg>
